<?xml version="1.0" encoding="UTF-8"?>
<svg version="1.1" xmlns="http://www.w3.org/2000/svg" width="500" height="500">
<path d="M0 0 C0.91807938 -0.00637985 1.83615875 -0.0127597 2.78205872 -0.01933289 C4.26025337 -0.02100212 4.26025337 -0.02100212 5.76831055 -0.02270508 C6.78926315 -0.02603348 7.81021576 -0.02936188 8.86210632 -0.03279114 C11.02151032 -0.03785128 13.18092212 -0.04019974 15.34033203 -0.04003906 C18.63221241 -0.0422212 21.92375525 -0.0603748 25.21557617 -0.0793457 C27.31648649 -0.08228073 29.41739839 -0.0842648 31.51831055 -0.08520508 C32.49770096 -0.09239059 33.47709137 -0.09957611 34.48616028 -0.10697937 C40.46315034 -0.08715374 46.13157798 -0.05076741 51.23876953 3.44213867 C51.93788452 4.16143555 51.93788452 4.16143555 52.65112305 4.89526367 C53.42939453 5.68416992 53.42939453 5.68416992 54.22338867 6.48901367 C54.73708008 7.03557617 55.25077148 7.58213867 55.7800293 8.14526367 C56.32079102 8.69182617 56.86155273 9.23838867 57.41870117 9.80151367 C61.3425293 13.84935659 61.3425293 13.84935659 61.3425293 16.14526367 C61.90456055 16.38245117 62.4665918 16.61963867 63.0456543 16.86401367 C65.86146971 18.43474064 67.82208346 20.35997832 70.0925293 22.64526367 C70.89174805 23.43932617 71.6909668 24.23338867 72.5144043 25.05151367 C74.3425293 27.14526367 74.3425293 27.14526367 74.3425293 29.14526367 C75.0025293 29.14526367 75.6625293 29.14526367 76.3425293 29.14526367 C78.00927251 32.06350611 78.5857301 34.12120747 78.5378418 37.47338867 C78.53139648 38.27260742 78.52495117 39.07182617 78.51831055 39.89526367 C78.49317383 41.13276367 78.49317383 41.13276367 78.4675293 42.39526367 C78.45850586 43.23573242 78.44948242 44.07620117 78.44018555 44.94213867 C78.41668747 47.00996972 78.38081837 49.07765362 78.3425293 51.14526367 C74.8775293 51.64026367 74.8775293 51.64026367 71.3425293 52.14526367 C68.66325588 48.12635355 69.18651681 45.90364445 69.3425293 41.14526367 C68.45114258 41.18453979 68.45114258 41.18453979 67.54174805 41.22460938 C64.80895188 41.32953302 62.07658072 41.39388397 59.3425293 41.45776367 C58.40795898 41.4996582 57.47338867 41.54155273 56.51049805 41.5847168 C50.01433511 41.69828608 45.18330701 40.72140614 40.3425293 36.14526367 C38.36999637 33.08358474 38.05423777 30.54757336 37.9284668 26.94213867 C37.87045898 25.47260742 37.87045898 25.47260742 37.8112793 23.97338867 C37.7803418 22.95760742 37.7494043 21.94182617 37.7175293 20.89526367 C37.65952148 19.34838867 37.65952148 19.34838867 37.6003418 17.77026367 C37.50621256 15.22877427 37.42057951 12.68728934 37.3425293 10.14526367 C31.86157561 10.12053013 26.38065447 10.10238772 20.8996582 10.09033203 C19.03539463 10.08530575 17.171135 10.07848375 15.30688477 10.06982422 C12.62604805 10.05768404 9.9452635 10.05201828 7.2644043 10.04760742 C6.43197205 10.04244614 5.59953979 10.03728485 4.74188232 10.03196716 C3.57112152 10.03185387 3.57112152 10.03185387 2.37670898 10.03173828 C1.35078644 10.02840736 1.35078644 10.02840736 0.30413818 10.02500916 C-2.02559852 10.10786969 -2.02559852 10.10786969 -5.6574707 11.14526367 C-5.6574707 41.50526367 -5.6574707 71.86526367 -5.6574707 103.14526367 C0.9425293 103.47526367 7.5425293 103.80526367 14.3425293 104.14526367 C15.6625293 104.80526367 16.9825293 105.46526367 18.3425293 106.14526367 C18.3425293 108.45526367 18.3425293 110.76526367 18.3425293 113.14526367 C14.62437794 115.00433935 10.18459384 114.37323371 6.0925293 114.39526367 C5.15022461 114.41588867 4.20791992 114.43651367 3.23706055 114.45776367 C-2.1561964 114.48802037 -6.02311105 114.22751551 -10.6574707 111.14526367 C-15.46044695 105.82304675 -15.80956458 102.35428348 -15.81860352 95.36865234 C-15.82356842 94.45955612 -15.82853333 93.5504599 -15.83364868 92.61381531 C-15.8482909 89.59694673 -15.855076 86.58013074 -15.8605957 83.56323242 C-15.86634579 81.47056578 -15.87210354 79.37789915 -15.87786865 77.28523254 C-15.88838473 72.89278924 -15.89422332 68.50036428 -15.89770508 64.10791016 C-15.90318879 58.47867764 -15.92721174 52.84968713 -15.95567703 47.22053051 C-15.97429897 42.89597363 -15.9795088 38.57147507 -15.98104095 34.24688148 C-15.98406939 32.17164093 -15.99210432 30.09640146 -16.00522614 28.02120018 C-16.02227595 25.11729907 -16.02040882 22.21398942 -16.01391602 19.31005859 C-16.0231308 18.45220764 -16.03234558 17.59435669 -16.0418396 16.71051025 C-15.9996818 10.69311347 -14.69085242 7.50661018 -10.7199707 2.89526367 C-7.4191109 0.09453414 -4.22102554 0.01998834 0 0 Z M47.3425293 14.14526367 C47.28869081 16.60388768 47.24893892 19.06133917 47.2175293 21.52026367 C47.20077148 22.21893555 47.18401367 22.91760742 47.16674805 23.63745117 C47.14908663 25.47423853 47.23949669 27.3112833 47.3425293 29.14526367 C49.25659592 31.50167891 49.25659592 31.50167891 52.6003418 31.34057617 C53.87651367 31.31737305 55.15268555 31.29416992 56.4675293 31.27026367 C57.74885742 31.2522168 59.03018555 31.23416992 60.3503418 31.21557617 C61.33776367 31.19237305 62.32518555 31.16916992 63.3425293 31.14526367 C63.3425293 30.48526367 63.3425293 29.82526367 63.3425293 29.14526367 C61.78869782 27.61288816 61.78869782 27.61288816 59.7800293 26.02026367 C56.01888247 22.84135844 52.83834104 19.42839076 49.69018555 15.64916992 C49.24545898 15.15288086 48.80073242 14.6565918 48.3425293 14.14526367 C48.0125293 14.14526367 47.6825293 14.14526367 47.3425293 14.14526367 Z " fill="#259E73" transform="translate(63.657470703125,192.854736328125)"/>
<path d="M0 0 C4.95 0 9.9 0 15 0 C16.97170133 4.92925333 17.14673822 8.08987516 16.75 13.1875 C16.71003906 13.91130859 16.67007813 14.63511719 16.62890625 15.38085938 C16.25999781 20.74000219 16.25999781 20.74000219 14 23 C10.70285207 22.67028521 9.3773161 22.3773161 7 20 C6.59952556 17.67724823 6.2602896 15.34260643 6 13 C5.66742188 14.14662109 5.66742188 14.14662109 5.328125 15.31640625 C3.23324418 19.54929778 -0.03636518 20.42891413 -4.2421875 22.19140625 C-7.84932646 23.24902348 -9.70202746 22.72750942 -13 21 C-14.66088045 20.63893903 -16.32618981 20.29537827 -18 20 C-18.78282648 21.79199472 -18.78282648 21.79199472 -19 24 C-18.505 24.5775 -18.01 25.155 -17.5 25.75 C-15.5757808 28.6363288 -15.90702679 30.62977008 -16.4921875 33.97265625 C-17.56886489 38.27108369 -18.90118555 41.15475812 -22.4375 43.875 C-25 45 -25 45 -29 45 C-29 45.99 -29 46.98 -29 48 C-27.515 47.505 -27.515 47.505 -26 47 C-24.66474283 46.92026524 -23.32587917 46.89228662 -21.98828125 46.90234375 C-20.85229492 46.90717773 -20.85229492 46.90717773 -19.69335938 46.91210938 C-18.51483398 46.92467773 -18.51483398 46.92467773 -17.3125 46.9375 C-16.11657227 46.94426758 -16.11657227 46.94426758 -14.89648438 46.95117188 C-12.93095743 46.9629415 -10.96546915 46.98087652 -9 47 C-8.34 45.68 -7.68 44.36 -7 43 C-6.34 43 -5.68 43 -5 43 C-5 42.34 -5 41.68 -5 41 C-4.34 41 -3.68 41 -3 41 C-3 40.34 -3 39.68 -3 39 C-2.34 38.67 -1.68 38.34 -1 38 C-1.94875 37.71125 -2.8975 37.4225 -3.875 37.125 C-7 36 -7 36 -9 34 C-8.44444444 29.44444444 -8.44444444 29.44444444 -7 28 C-5.37742456 27.9008343 -3.75060169 27.86920223 -2.125 27.8671875 C-1.14015625 27.86589844 -0.1553125 27.86460937 0.859375 27.86328125 C1.89578125 27.86714844 2.9321875 27.87101562 4 27.875 C5.55460937 27.86919922 5.55460937 27.86919922 7.140625 27.86328125 C8.12546875 27.86457031 9.1103125 27.86585938 10.125 27.8671875 C11.03507812 27.86831543 11.94515625 27.86944336 12.8828125 27.87060547 C15 28 15 28 16 29 C16.43599819 32.06545447 16.56345697 35.16066546 16.75 38.25 C16.85248047 39.53970703 16.85248047 39.53970703 16.95703125 40.85546875 C17.25477865 45.81029085 17.2532901 48.94177214 14 53 C11.03 52.505 11.03 52.505 8 52 C7.34 49.69 6.68 47.38 6 45 C5.48179687 45.86625 4.96359375 46.7325 4.4296875 47.625 C0.66817911 52.89220679 -2.88675481 56.46028308 -9.46435547 57.60058594 C-13.51868371 57.87725926 -17.50235995 57.96019199 -21.5625 57.875 C-22.24596497 57.86227051 -22.92942993 57.84954102 -23.63360596 57.83642578 C-35.18050699 57.54632867 -35.18050699 57.54632867 -39 55 C-39.27613568 52.24458159 -39.37257625 49.74908898 -39.3125 47 C-39.31572266 46.26265625 -39.31894531 45.5253125 -39.32226562 44.765625 C-39.26707949 39.26707949 -39.26707949 39.26707949 -37 37 C-34.68616991 36.22730812 -32.35349368 35.60268792 -29.99609375 34.9765625 C-27.83244441 34.17849 -27.83244441 34.17849 -27.09765625 32.04296875 C-26.75268031 29.74884734 -26.75268031 29.74884734 -29 27.6875 C-31 25 -31 25 -31 21.4375 C-29.93443764 17.77462939 -29.011339 16.28131742 -26 14 C-25.34 14 -24.68 14 -24 14 C-23.7525 13.401875 -23.505 12.80375 -23.25 12.1875 C-21.77581746 9.60768056 -20.61286717 8.4184136 -18 7 C-14.87730993 7.16013795 -13.15467807 7.90332621 -10.5 9.5625 C-7.71844332 11.16189509 -6.15069341 11.27005944 -3 11 C-2.814375 9.39125 -2.814375 9.39125 -2.625 7.75 C-2 4 -2 4 0 0 Z " fill="#4FA37E" transform="translate(126,250)"/>
<path d="M0 0 C1.20663619 4.29170653 1.13233957 8.47286361 1.11352539 12.89941406 C1.11367142 13.79732666 1.11381744 14.69523926 1.1139679 15.62036133 C1.11327176 18.58547387 1.10549329 21.55052344 1.09765625 24.515625 C1.09579101 26.57257045 1.09436761 28.62951635 1.09336853 30.6864624 C1.0895517 36.09844185 1.07972851 41.51039444 1.06866455 46.92236328 C1.05843252 52.44563432 1.05386707 57.96890971 1.04882812 63.4921875 C1.03810552 74.3281368 1.02103907 85.16406616 1 96 C1.58491211 96.01981934 2.16982422 96.03963867 2.77246094 96.06005859 C5.43208025 96.15553481 8.09093838 96.26512142 10.75 96.375 C11.67039062 96.4059375 12.59078125 96.436875 13.5390625 96.46875 C14.42851563 96.50742187 15.31796875 96.54609375 16.234375 96.5859375 C17.45979004 96.63306885 17.45979004 96.63306885 18.70996094 96.68115234 C21.16832958 97.02343693 22.85759999 97.7739277 25 99 C25 101.31 25 103.62 25 106 C21.28184865 107.85907568 16.84206454 107.22797004 12.75 107.25 C11.80769531 107.270625 10.86539063 107.29125 9.89453125 107.3125 C4.5012743 107.3427567 0.63435965 107.08225184 -4 104 C-8.63558884 98.86326642 -9.14187709 95.66852978 -9.08520508 88.92944336 C-9.08202271 88.0950473 -9.07884033 87.26065125 -9.07556152 86.40097046 C-9.06293298 83.6305229 -9.04205254 80.86022771 -9.01953125 78.08984375 C-9.01257421 77.14307833 -9.00561718 76.1963129 -8.99844933 75.22085762 C-8.96100496 70.20486848 -8.91697966 65.18898409 -8.86791992 60.1730957 C-8.81870764 55.00398369 -8.7924208 49.83502509 -8.77148914 44.66573238 C-8.75105305 40.68227939 -8.71314896 36.69912553 -8.6706295 32.71585274 C-8.65334802 30.81144555 -8.64260792 28.90696682 -8.63868141 27.00248528 C-8.63155144 24.3265567 -8.59951329 21.65196735 -8.56176758 18.97631836 C-8.5652269 18.19830368 -8.56868622 17.420289 -8.57225037 16.61869812 C-8.45252333 10.83804114 -6.98966088 5.9824678 -4 1 C-2 0 -2 0 0 0 Z " fill="#1B986C" transform="translate(57,200)"/>
<path d="M0 0 C3.85425196 2.19267484 5.93823737 4.22304397 7.75 8.375 C8.05568474 12.06869058 7.98675107 15.67905273 7.75 19.375 C5.45691037 20.52154482 3.95090344 20.57229117 1.3984375 20.69140625 C0.54765625 20.73330078 -0.303125 20.77519531 -1.1796875 20.81835938 C-2.51386719 20.87733398 -2.51386719 20.87733398 -3.875 20.9375 C-5.22078125 21.00227539 -5.22078125 21.00227539 -6.59375 21.06835938 C-8.81234283 21.17456861 -11.0310488 21.27661194 -13.25 21.375 C-13.25 22.035 -13.25 22.695 -13.25 23.375 C-8.12479197 24.40004161 -5.11195888 24.17181089 -0.25 22.375 C2.5625 22.1875 2.5625 22.1875 4.75 22.375 C5.75 23.375 5.75 23.375 6 26.25 C5.75 29.375 5.75 29.375 4.4375 31.1875 C0.69530024 33.82089983 -3.13318638 33.6042587 -7.5625 33.6875 C-8.85800781 33.72488281 -10.15351563 33.76226562 -11.48828125 33.80078125 C-15.84049296 33.30816331 -17.87951471 32.11382772 -21.25 29.375 C-25.3309443 24.22012299 -25.94492597 19.85067271 -25.69140625 13.31640625 C-24.88481433 7.94150614 -22.77063826 4.26682232 -18.41796875 1 C-12.22470381 -2.51806766 -6.5064705 -2.86766663 0 0 Z M-12.625 9.25 C-14.35124168 11.06154017 -14.35124168 11.06154017 -14.25 12.375 C-10.29 12.375 -6.33 12.375 -2.25 12.375 C-3.77289621 8.1660997 -3.77289621 8.1660997 -7.125 7.375 C-10.34552849 7.0522686 -10.34552849 7.0522686 -12.625 9.25 Z " fill="#505562" transform="translate(390.25,239.625)"/>
<path d="M0 0 C0.886875 0.20625 1.77375 0.4125 2.6875 0.625 C6.69848677 3.00991105 9.91366518 6.82733037 12 11 C12.74042756 17.0921255 13.0314177 22.4418364 9.3125 27.5625 C6.14651288 31.36659306 2.87793103 33.7361388 -2.0859375 34.43359375 C-8.93771311 34.44173125 -13.583565 34.37924532 -19 30 C-22.74595553 25.16968893 -24.33506753 21.36713292 -24.30078125 15.20703125 C-23.78130177 11.39526621 -21.94751089 8.26903613 -20 5 C-19.34 5 -18.68 5 -18 5 C-18 4.34 -18 3.68 -18 3 C-11.64761325 -0.49906882 -7.10855244 -1.66932738 0 0 Z M-11.9375 10 C-14.23297225 13.33886872 -14.75061472 15.10142329 -14.48828125 19.06640625 C-13.63139654 22.45966968 -11.74890261 23.98413808 -9 26 C-6.61391389 27.24401278 -6.61391389 27.24401278 -4 27 C0.11028975 25.065746 1.67142959 23.75297385 3.5 19.5625 C4.02073009 15.85229814 3.76728387 14.24002044 2 11 C1.34 11 0.68 11 0 11 C0 10.34 0 9.68 0 9 C-4.34562852 6.82718574 -8.01269025 7.3277891 -11.9375 10 Z " fill="#333B49" transform="translate(270,239)"/>
<path d="M0 0 C3.85652928 3.42802603 4.96723973 8.42509839 5.52099609 13.46777344 C5.61381455 15.94391436 5.61134128 18.3977701 5.5625 20.875 C5.56733398 22.13570313 5.56733398 22.13570313 5.57226562 23.421875 C5.51800258 29.59799613 5.51800258 29.59799613 3.25 33 C0.25 33.3125 0.25 33.3125 -2.75 33 C-5.23436117 30.51563883 -5.00929369 29.70712065 -5.05859375 26.28125 C-5.08373047 25.34925781 -5.10886719 24.41726563 -5.13476562 23.45703125 C-5.1699207 21.48574286 -5.20117107 19.51438096 -5.22851562 17.54296875 C-5.25494141 16.61097656 -5.28136719 15.67898437 -5.30859375 14.71875 C-5.32204834 13.86216797 -5.33550293 13.00558594 -5.34936523 12.12304688 C-5.48157471 11.42244141 -5.61378418 10.72183594 -5.75 10 C-8.587578 7.64985842 -8.587578 7.64985842 -11.875 8.3125 C-14.63086422 8.70644321 -14.63086422 8.70644321 -15.75 10 C-15.88275205 11.53682435 -15.95328174 13.07914067 -15.99609375 14.62109375 C-16.02896484 15.55630859 -16.06183594 16.49152344 -16.09570312 17.45507812 C-16.15677734 19.43934031 -16.21408455 21.42372211 -16.26757812 23.40820312 C-16.30173828 24.34470703 -16.33589844 25.28121094 -16.37109375 26.24609375 C-16.3961499 27.10904053 -16.42120605 27.9719873 -16.44702148 28.86108398 C-16.75 31 -16.75 31 -18.75 33 C-21.875 33.125 -21.875 33.125 -24.75 33 C-26.23679725 30.02640551 -25.86112605 27.33700821 -25.84765625 24.0234375 C-25.84553383 22.99556625 -25.84553383 22.99556625 -25.84336853 21.94692993 C-25.83776675 19.75624239 -25.82521406 17.5656567 -25.8125 15.375 C-25.80748522 13.89062648 -25.80292228 12.40625135 -25.79882812 10.921875 C-25.78779677 7.28121685 -25.77053099 3.64061836 -25.75 0 C-22.285 -0.495 -22.285 -0.495 -18.75 -1 C-18.42 -0.01 -18.09 0.98 -17.75 2 C-17.09 2 -16.43 2 -15.75 2 C-15.75 1.34 -15.75 0.68 -15.75 0 C-9.97762656 -2.39342314 -5.83073055 -2.12026566 0 0 Z " fill="#3B4051" transform="translate(205.75,240)"/>
<path d="M0 0 C0.98484375 -0.00128906 1.9696875 -0.00257813 2.984375 -0.00390625 C4.02078125 -0.00003906 5.0571875 0.00382812 6.125 0.0078125 C7.67960937 0.00201172 7.67960937 0.00201172 9.265625 -0.00390625 C10.25046875 -0.00261719 11.2353125 -0.00132812 12.25 0 C13.16007812 0.00112793 14.07015625 0.00225586 15.0078125 0.00341797 C17.125 0.1328125 17.125 0.1328125 18.125 1.1328125 C18.56099819 4.19826697 18.68845697 7.29347796 18.875 10.3828125 C18.97748047 11.67251953 18.97748047 11.67251953 19.08203125 12.98828125 C19.37977865 17.94310335 19.3782901 21.07458464 16.125 25.1328125 C14.145 24.8028125 12.165 24.4728125 10.125 24.1328125 C9.465 21.8228125 8.805 19.5128125 8.125 17.1328125 C7.60180176 17.84743652 7.07860352 18.56206055 6.53955078 19.29833984 C2.90444009 23.63306359 -0.05963253 27.16287472 -5.79394531 27.95800781 C-10.20757115 28.23733504 -14.59038084 28.00900534 -19 27.7578125 C-20.54412538 27.70755222 -22.08840948 27.66194233 -23.6328125 27.62109375 C-27.38418841 27.5118673 -31.12780819 27.33996292 -34.875 27.1328125 C-34.92949838 25.40400268 -34.96801688 23.67468538 -35 21.9453125 C-35.02320312 20.98238281 -35.04640625 20.01945312 -35.0703125 19.02734375 C-34.8663544 16.00468472 -34.14374632 13.86511265 -32.875 11.1328125 C-31.225 11.1328125 -29.575 11.1328125 -27.875 11.1328125 C-28.04 11.8340625 -28.205 12.5353125 -28.375 13.2578125 C-28.89941266 16.27318527 -28.90884416 19.07837725 -28.875 22.1328125 C-25.27052566 21.9940244 -21.66651288 21.84557315 -18.0625 21.6953125 C-16.52625977 21.63633789 -16.52625977 21.63633789 -14.95898438 21.57617188 C-13.97607422 21.53427734 -12.99316406 21.49238281 -11.98046875 21.44921875 C-11.07449951 21.41256104 -10.16853027 21.37590332 -9.23510742 21.33813477 C-6.72451218 21.211992 -6.72451218 21.211992 -3.875 20.1328125 C-3.545 19.1428125 -3.215 18.1528125 -2.875 17.1328125 C-0.99882302 15.28781852 1.05237609 13.7644526 3.125 12.1328125 C2.63 11.1428125 2.63 11.1428125 2.125 10.1328125 C-0.20510909 9.45496258 -2.53859824 8.78864457 -4.875 8.1328125 C-5.535 7.4728125 -6.195 6.8128125 -6.875 6.1328125 C-6.19263546 0.53742327 -5.4719249 0.00678178 0 0 Z " fill="#1F976D" transform="translate(123.875,277.8671875)"/>
<path d="M0 0 C1.670625 0.37125 1.670625 0.37125 3.375 0.75 C5.55573346 5.11146691 4.60210971 10.96963723 4.61523438 15.81591797 C4.62490135 17.9779362 4.65590494 20.13898776 4.6875 22.30078125 C4.6940343 23.68489021 4.69928309 25.06900595 4.703125 26.453125 C4.71714355 28.33499512 4.71714355 28.33499512 4.73144531 30.25488281 C4.20713876 35.39595998 2.26208155 38.64714186 -0.9375 42.625 C-5.13695935 45.89359682 -10.24686034 45.36047322 -15.328125 45.18359375 C-20.67700724 44.48012701 -22.86939442 42.50560558 -26.625 38.75 C-26.29528521 35.45285207 -26.0023161 34.1273161 -23.625 31.75 C-19.57238713 31.40509678 -18.07745824 31.44836118 -14.625 33.75 C-12.08269153 34.16679297 -12.08269153 34.16679297 -9.625 33.75 C-7.22982714 30.1572407 -7.36077248 28.45406106 -7.31640625 24.18359375 C-7.29126953 22.89388672 -7.26613281 21.60417969 -7.24023438 20.27539062 C-7.21142069 18.2256786 -7.18739558 16.17605033 -7.16870117 14.1262207 C-7.14710868 12.14516926 -7.10703199 10.16434628 -7.06640625 8.18359375 C-7.05295166 6.99822021 -7.03949707 5.81284668 -7.02563477 4.59155273 C-6.89342529 3.65384033 -6.76121582 2.71612793 -6.625 1.75 C-3.625 -0.25 -3.625 -0.25 0 0 Z " fill="#3B414F" transform="translate(356.625,228.25)"/>
<path d="M0 0 C2 2 2 2 2.1875 4.5625 C2 7 2 7 1 8 C-1.34023315 7.71917202 -3.67305036 7.37531446 -6 7 C-7.299375 6.814375 -8.59875 6.62875 -9.9375 6.4375 C-10.948125 6.293125 -11.95875 6.14875 -13 6 C-13.99 7.485 -13.99 7.485 -15 9 C-14.27554687 9.17015625 -13.55109375 9.3403125 -12.8046875 9.515625 C-7.11513972 10.94180498 -2.5707113 12.27126184 2 16 C3.12256131 18.24512262 3.13413762 19.51456649 3.125 22 C3.12886719 23.051875 3.12886719 23.051875 3.1328125 24.125 C3 26 3 26 2 28 C1.34 28 0.68 28 0 28 C0 28.66 0 29.32 0 30 C-5.18291642 33.17295615 -11.13711059 32.48796719 -17 32 C-20.56108467 30.67213792 -22.35513566 29.64486434 -25 27 C-24.625 24.375 -24.625 24.375 -24 22 C-19.2731506 20.47072519 -17.2961207 21.85193965 -13 24 C-9.24926796 24.25144312 -9.24926796 24.25144312 -6 24 C-6 23.01 -6 22.02 -6 21 C-6.66386719 20.81824219 -7.32773437 20.63648438 -8.01171875 20.44921875 C-13.77287069 18.8091828 -18.67174555 17.32825445 -23 13 C-24.16326668 8.63774995 -24.15638541 5.98931302 -22 2 C-16.76170345 -5.07170034 -6.92704904 -3.46352452 0 0 Z " fill="#4C515E" transform="translate(325,241)"/>
<path d="M0 0 C17.49 0 34.98 0 53 0 C52.67 1.65 52.34 3.3 52 5 C51.34 5.33 50.68 5.66 50 6 C50 7.98 50 9.96 50 12 C50.99 12 51.98 12 53 12 C53.06058594 12.95261719 53.12117188 13.90523437 53.18359375 14.88671875 C53.26738281 16.14097656 53.35117188 17.39523438 53.4375 18.6875 C53.51871094 19.92886719 53.59992188 21.17023438 53.68359375 22.44921875 C53.95890835 26.26387858 53.95890835 26.26387858 55 31 C60.28 31 65.56 31 71 31 C71 32.32 71 33.64 71 35 C72.98 35.33 74.96 35.66 77 36 C76.505 36.99 76.505 36.99 76 38 C72.91674642 38.0582253 69.83363495 38.09367134 66.75 38.125 C65.44095703 38.15013672 65.44095703 38.15013672 64.10546875 38.17578125 C63.26113281 38.18222656 62.41679688 38.18867188 61.546875 38.1953125 C60.77182617 38.20578613 59.99677734 38.21625977 59.19824219 38.22705078 C56.74116461 37.97326556 55.12688458 37.22444152 53 36 C53 35.34 53 34.68 53 34 C51.02 34 49.04 34 47 34 C45.06102788 30.72075593 44.70674472 28.14466781 44.5859375 24.359375 C44.55032715 23.39483398 44.5147168 22.43029297 44.47802734 21.43652344 C44.44402832 20.2199707 44.4100293 19.00341797 44.375 17.75 C44.25125 13.8725 44.1275 9.995 44 6 C30.47 6 16.94 6 3 6 C3 5.01 3 4.02 3 3 C2.01 3 1.02 3 0 3 C0 2.01 0 1.02 0 0 Z " fill="#1E986C" transform="translate(57,195)"/>
<path d="M0 0 C0.845625 0.144375 1.69125 0.28875 2.5625 0.4375 C4.98363225 3.91708536 6.62186605 7.66084567 8.25 11.5625 C8.90548828 13.11324219 8.90548828 13.11324219 9.57421875 14.6953125 C10.5625 17.4375 10.5625 17.4375 10.5625 20.4375 C11.2225 20.4375 11.8825 20.4375 12.5625 20.4375 C12.73265625 19.90382813 12.9028125 19.37015625 13.078125 18.8203125 C18.33173077 2.66826923 18.33173077 2.66826923 20.5625 0.4375 C22.56208364 0.39669217 24.56295254 0.39495644 26.5625 0.4375 C28.051132 3.31621345 28.7275575 4.79209552 27.91015625 7.98828125 C27.48605469 8.89964844 27.06195313 9.81101563 26.625 10.75 C26.15707031 11.78382813 25.68914062 12.81765625 25.20703125 13.8828125 C24.66433594 15.05585938 24.12164062 16.22890625 23.5625 17.4375 C22.93723364 18.87058251 22.31632114 20.30557059 21.69921875 21.7421875 C16.74517003 33.25482997 16.74517003 33.25482997 15.5625 34.4375 C12.25 34.875 12.25 34.875 8.5625 34.4375 C4.54862662 29.52354592 2.28311304 23.67329543 -0.1875 17.875 C-0.59871094 16.94236328 -1.00992188 16.00972656 -1.43359375 15.04882812 C-1.82160156 14.14455078 -2.20960938 13.24027344 -2.609375 12.30859375 C-2.9609668 11.49318115 -3.31255859 10.67776855 -3.67480469 9.83764648 C-4.51506158 7.19341936 -4.72177162 5.19464468 -4.4375 2.4375 C-2.4375 0.4375 -2.4375 0.4375 0 0 Z " fill="#3C414F" transform="translate(217.4375,238.5625)"/>
<path d="M0 0 C0.91807938 -0.00637985 1.83615875 -0.0127597 2.78205872 -0.01933289 C4.26025337 -0.02100212 4.26025337 -0.02100212 5.76831055 -0.02270508 C6.78926315 -0.02603348 7.81021576 -0.02936188 8.86210632 -0.03279114 C11.02151032 -0.03785128 13.18092212 -0.04019974 15.34033203 -0.04003906 C18.63221241 -0.0422212 21.92375525 -0.0603748 25.21557617 -0.0793457 C27.31648649 -0.08228073 29.41739839 -0.0842648 31.51831055 -0.08520508 C32.49770096 -0.09239059 33.47709137 -0.09957611 34.48616028 -0.10697937 C46.18343081 -0.06817961 46.18343081 -0.06817961 51.23876953 3.47387695 C51.93788452 4.21226807 51.93788452 4.21226807 52.65112305 4.96557617 C53.1699707 5.50053711 53.68881836 6.03549805 54.22338867 6.58666992 C54.73708008 7.14225586 55.25077148 7.6978418 55.7800293 8.27026367 C56.32079102 8.83358398 56.86155273 9.3969043 57.41870117 9.97729492 C58.7384341 11.35542311 60.04218081 12.74883032 61.3425293 14.14526367 C59.4675293 14.77026367 59.4675293 14.77026367 57.3425293 15.14526367 C56.3525293 14.15526367 56.3525293 14.15526367 55.3425293 13.14526367 C54.3525293 12.81526367 53.3625293 12.48526367 52.3425293 12.14526367 C53.0025293 12.14526367 53.6625293 12.14526367 54.3425293 12.14526367 C54.3425293 11.15526367 54.3425293 10.16526367 54.3425293 9.14526367 C52.0325293 8.81526367 49.7225293 8.48526367 47.3425293 8.14526367 C46.6825293 9.13526367 46.0225293 10.12526367 45.3425293 11.14526367 C46.6625293 11.14526367 47.9825293 11.14526367 49.3425293 11.14526367 C49.3425293 12.13526367 49.3425293 13.12526367 49.3425293 14.14526367 C49.9200293 14.39276367 50.4975293 14.64026367 51.0925293 14.89526367 C53.67192909 16.32826356 55.40374522 17.92951044 57.3425293 20.14526367 C57.3425293 20.80526367 57.3425293 21.46526367 57.3425293 22.14526367 C58.8275293 22.64026367 58.8275293 22.64026367 60.3425293 23.14526367 C60.0125293 24.46526367 59.6825293 25.78526367 59.3425293 27.14526367 C55.7125293 23.51526367 52.0825293 19.88526367 48.3425293 16.14526367 C48.0125293 20.10526367 47.6825293 24.06526367 47.3425293 28.14526367 C47.0125293 28.14526367 46.6825293 28.14526367 46.3425293 28.14526367 C46.0125293 23.85526367 45.6825293 19.56526367 45.3425293 15.14526367 C44.3525293 14.81526367 43.3625293 14.48526367 42.3425293 14.14526367 C41.83829911 8.85084672 43.15329896 6.33112848 46.3425293 2.14526367 C45.57666504 2.31276123 44.81080078 2.48025879 44.02172852 2.65283203 C39.13896248 3.30635155 34.39188042 3.15747546 29.4753418 3.02416992 C28.44061737 3.00055893 27.40589294 2.97694794 26.33981323 2.95262146 C23.04890091 2.87631158 19.75824352 2.79214712 16.4675293 2.70776367 C14.23056243 2.65451026 11.99358327 2.60177011 9.7565918 2.54956055 C4.28508137 2.42074087 -1.18624109 2.28547919 -6.6574707 2.14526367 C-6.6574707 3.13526367 -6.6574707 4.12526367 -6.6574707 5.14526367 C-5.6674707 5.14526367 -4.6774707 5.14526367 -3.6574707 5.14526367 C-3.6574707 6.13526367 -3.6574707 7.12526367 -3.6574707 8.14526367 C9.8725293 8.14526367 23.4025293 8.14526367 37.3425293 8.14526367 C37.3425293 8.47526367 37.3425293 8.80526367 37.3425293 9.14526367 C35.60966675 9.1828479 35.60966675 9.1828479 33.84179688 9.22119141 C29.54595301 9.31553313 25.25026076 9.41568804 20.95458984 9.51757812 C19.09720411 9.56082588 17.23978122 9.60250795 15.38232422 9.64257812 C12.70878922 9.70052737 10.03543948 9.7641502 7.36206055 9.82885742 C6.53478958 9.84556992 5.70751862 9.86228241 4.85517883 9.87950134 C0.90349035 9.98049327 -2.7986534 10.18822249 -6.6574707 11.14526367 C-6.6574707 9.82526367 -6.6574707 8.50526367 -6.6574707 7.14526367 C-8.63767492 7.5856036 -8.63767492 7.5856036 -10.6574707 9.14526367 C-13.11862589 14.62464858 -14.10201603 19.28372715 -14.08984375 25.30541992 C-14.1000354 26.07712021 -14.11022705 26.8488205 -14.12072754 27.64390564 C-14.15064272 30.16526756 -14.16009015 32.68624827 -14.16918945 35.20776367 C-14.18605213 36.96754192 -14.2042045 38.72730825 -14.22358704 40.48706055 C-14.27092076 45.09666211 -14.30083737 49.70621529 -14.32702637 54.315979 C-14.35691614 59.0287023 -14.40341741 63.74125917 -14.44848633 68.45385742 C-14.53433007 77.68423882 -14.60175919 86.91465464 -14.6574707 96.14526367 C-14.9874707 96.14526367 -15.3174707 96.14526367 -15.6574707 96.14526367 C-15.72698478 85.0186501 -15.78028921 73.89208821 -15.81290722 62.7653017 C-15.82856233 57.59866477 -15.84979792 52.43217642 -15.88378906 47.265625 C-15.91638781 42.27950263 -15.93432488 37.29352318 -15.94210243 32.30730247 C-15.947645 30.40509987 -15.95846825 28.50290508 -15.97466087 26.60076332 C-15.99644196 23.93614429 -15.99943734 21.27211562 -15.99804688 18.60742188 C-16.0088327 17.82123474 -16.01961853 17.03504761 -16.0307312 16.22503662 C-15.99732074 10.30697861 -14.49577181 7.28006496 -10.7199707 2.89526367 C-7.4191109 0.09453414 -4.22102554 0.01998834 0 0 Z " fill="#379B78" transform="translate(63.657470703125,192.854736328125)"/>
<path d="M0 0 C0.78375 0.37125 1.5675 0.7425 2.375 1.125 C4.43759518 1.29357317 4.43759518 1.29357317 6.1875 0.0625 C8.98302468 -1.13558201 10.50484149 -0.72829037 13.375 0.125 C14.375 1.125 14.375 1.125 14.47265625 2.97265625 C14.44010417 5.0234375 14.40755208 7.07421875 14.375 9.125 C11.46899739 10.38164978 9.57895416 11.125 6.375 11.125 C4.25541192 17.05984661 3.94774061 22.84032827 3.62109375 29.11328125 C3.375 32.125 3.375 32.125 2.375 34.125 C-1 34.25 -1 34.25 -4.625 34.125 C-6.625 32.125 -6.625 32.125 -6.85205078 29.05224609 C-6.84157715 27.76398926 -6.83110352 26.47573242 -6.8203125 25.1484375 C-6.8174826 24.46319 -6.81465271 23.7779425 -6.81173706 23.07192993 C-6.80053281 20.88110973 -6.77542859 18.69069684 -6.75 16.5 C-6.73997048 15.0156309 -6.73084458 13.5312554 -6.72265625 12.046875 C-6.70059294 8.40611739 -6.66606176 4.76559844 -6.625 1.125 C-2.953125 -0.984375 -2.953125 -0.984375 0 0 Z " fill="#363D4C" transform="translate(409.625,238.875)"/>
<path d="M0 0 C1.68335939 3.36671878 1.14154289 7.172966 1.1328125 10.875 C1.13376923 11.75526855 1.13472595 12.63553711 1.13571167 13.54248047 C1.13639276 15.40527416 1.13454343 17.26807023 1.13037109 19.13085938 C1.12502184 21.98833528 1.13031849 24.845654 1.13671875 27.703125 C1.13605796 29.51041701 1.13477677 31.31770893 1.1328125 33.125 C1.13483673 33.98335449 1.13686096 34.84170898 1.13894653 35.72607422 C1.11495872 41.77008255 1.11495872 41.77008255 0 44 C-2.31 44 -4.62 44 -7 44 C-8.14315747 41.71368506 -8.12112732 40.45652594 -8.11352539 37.91748047 C-8.11344986 37.07675995 -8.11337433 36.23603943 -8.11329651 35.36984253 C-8.10813522 34.46146637 -8.10297394 33.55309021 -8.09765625 32.6171875 C-8.0962413 31.68778351 -8.09482635 30.75837952 -8.09336853 29.80081177 C-8.08776053 26.82550876 -8.07520668 23.85028036 -8.0625 20.875 C-8.05748603 18.86067817 -8.05292295 16.84635516 -8.04882812 14.83203125 C-8.0377885 9.88799198 -8.02051849 4.94400865 -8 0 C-4.92605694 -0.85709523 -3.04352525 -1.15444061 0 0 Z " fill="#434857" transform="translate(172,229)"/>
<path d="M0 0 C0.33 0 0.66 0 1 0 C1.00586624 1.01175797 1.01173248 2.02351593 1.01777649 3.06593323 C1.07506348 12.61468524 1.14785637 22.16321083 1.23571491 31.71173191 C1.28038555 36.62038586 1.31964901 41.52895744 1.34643555 46.43774414 C1.37250145 51.17764583 1.4129272 55.91723001 1.46318626 60.65693474 C1.47983274 62.4625242 1.49136082 64.26816856 1.49761391 66.07382393 C1.50727921 68.60887834 1.53536688 71.1431245 1.56762695 73.67797852 C1.56619186 74.41957214 1.56475677 75.16116577 1.5632782 75.92523193 C1.66686034 81.70474096 2.8252153 86.50302497 6.6875 90.9375 C7.120625 91.288125 7.55375 91.63875 8 92 C8 91.01 8 90.02 8 89 C8 86.66666667 8 84.33333333 8 82 C8.33 83.32 8.66 84.64 9 86 C9.58491211 86.01981934 10.16982422 86.03963867 10.77246094 86.06005859 C13.43208025 86.15553481 16.09093838 86.26512142 18.75 86.375 C19.67039062 86.4059375 20.59078125 86.436875 21.5390625 86.46875 C22.42851563 86.50742187 23.31796875 86.54609375 24.234375 86.5859375 C25.45979004 86.63306885 25.45979004 86.63306885 26.70996094 86.68115234 C29.16832958 87.02343693 30.85759999 87.7739277 33 89 C33 91.31 33 93.62 33 96 C29.28184865 97.85907568 24.84206454 97.22797004 20.75 97.25 C19.80769531 97.270625 18.86539063 97.29125 17.89453125 97.3125 C12.5012743 97.3427567 8.63435965 97.08225184 4 94 C-0.68674095 88.80658435 -1.13108337 85.59762934 -1.02172852 78.78662109 C-1.01212097 77.9377684 -1.00251343 77.08891571 -0.99261475 76.21434021 C-0.95955887 73.40062333 -0.91925168 70.58705854 -0.87890625 67.7734375 C-0.85461157 65.82573996 -0.83076769 63.87803675 -0.80735779 61.93032837 C-0.74445197 56.79774528 -0.67540375 51.66526229 -0.60510254 46.53277588 C-0.53447772 41.29793872 -0.46962576 36.06303045 -0.40429688 30.828125 C-0.2752008 20.55200519 -0.13961958 10.27598184 0 0 Z " fill="#28906A" transform="translate(49,210)"/>
<path d="M0 0 C2 2 2 2 2.01171875 5.59765625 C1.91527574 7.08673636 1.80652723 8.57505476 1.6875 10.0625 C1.63263428 10.83094238 1.57776855 11.59938477 1.52124023 12.39111328 C1.35921093 14.59517805 1.18157602 16.7974724 1 19 C0.92523438 19.99644531 0.85046875 20.99289063 0.7734375 22.01953125 C0.43979607 25.74519384 0.11153654 27.83269518 -2 31 C-6.875 30.125 -6.875 30.125 -8 29 C-8.40997672 26.37255797 -8.76018915 23.76531231 -9.0625 21.125 C-9.15192871 20.35937744 -9.24135742 19.59375488 -9.33349609 18.80493164 C-9.98973577 12.85440029 -10.23275736 6.98703663 -10 1 C-6.24649329 -1.11236308 -4.21187864 -1.09875095 0 0 Z " fill="#404957" transform="translate(450,228)"/>
<path d="M0 0 C2.40731303 3.61096954 2.24532773 5.27565669 2.23046875 9.56640625 C2.22853516 10.85611328 2.22660156 12.14582031 2.22460938 13.47460938 C2.21840576 14.14516357 2.21220215 14.81571777 2.20581055 15.5065918 C2.18753512 17.55855703 2.18530109 19.61007118 2.18554688 21.66210938 C2.14026612 31.71946776 2.14026612 31.71946776 1 34 C-1.875 34.125 -1.875 34.125 -5 34 C-7 32 -7 32 -7.22705078 28.92724609 C-7.21657715 27.63898926 -7.20610352 26.35073242 -7.1953125 25.0234375 C-7.1924826 24.33819 -7.18965271 23.6529425 -7.18673706 22.94692993 C-7.17553281 20.75610973 -7.15042859 18.56569684 -7.125 16.375 C-7.11497048 14.8906309 -7.10584458 13.4062554 -7.09765625 11.921875 C-7.07559294 8.28111739 -7.04106176 4.64059844 -7 1 C-4.46578263 -0.26710868 -2.80561762 -0.28056176 0 0 Z " fill="#2C3442" transform="translate(294,239)"/>
<path d="M0 0 C0.91007812 0.00902344 1.82015625 0.01804688 2.7578125 0.02734375 C3.80582031 0.04474609 3.80582031 0.04474609 4.875 0.0625 C5.37 3.0325 5.37 3.0325 5.875 6.0625 C5.215 6.3925 4.555 6.7225 3.875 7.0625 C3.215 6.4025 2.555 5.7425 1.875 5.0625 C1.215 4.7325 0.555 4.4025 -0.125 4.0625 C-0.125 3.4025 -0.125 2.7425 -0.125 2.0625 C-1.115 2.0625 -2.105 2.0625 -3.125 2.0625 C-3.785 6.6825 -4.445 11.3025 -5.125 16.0625 C-13.34160445 16.85765527 -20.93805023 17.12893634 -29.125 16.0625 C-29.785 17.3825 -30.445 18.7025 -31.125 20.0625 C-32.115 20.0625 -33.105 20.0625 -34.125 20.0625 C-33.61347632 16.27722479 -32.91654158 14.62141312 -30.125 12.0625 C-29.795 11.0725 -29.465 10.0825 -29.125 9.0625 C-28.465 9.0625 -27.805 9.0625 -27.125 9.0625 C-27.125 8.4025 -27.125 7.7425 -27.125 7.0625 C-25.475 7.0625 -23.825 7.0625 -22.125 7.0625 C-22.125 7.7225 -22.125 8.3825 -22.125 9.0625 C-20.68774129 9.23123478 -19.25018162 9.39740737 -17.8125 9.5625 C-17.01199219 9.6553125 -16.21148437 9.748125 -15.38671875 9.84375 C-13.00603445 10.11063463 -13.00603445 10.11063463 -10.125 10.0625 C-10.125 9.4025 -10.125 8.7425 -10.125 8.0625 C-9.465 7.4025 -8.805 6.7425 -8.125 6.0625 C-7.96 5.216875 -7.795 4.37125 -7.625 3.5 C-7.46 2.695625 -7.295 1.89125 -7.125 1.0625 C-4.60024538 -0.19987731 -2.81299534 -0.03606404 0 0 Z " fill="#1F976C" transform="translate(134.125,251.9375)"/>
<path d="M0 0 C5.35682133 -0.0741205 10.71334462 -0.12858776 16.07055664 -0.16479492 C17.89320067 -0.1798876 19.71580836 -0.20036395 21.53833008 -0.22631836 C24.157155 -0.26268103 26.77550007 -0.27972124 29.39453125 -0.29296875 C30.61811089 -0.31619453 30.61811089 -0.31619453 31.8664093 -0.33988953 C37.54574035 -0.34158156 37.54574035 -0.34158156 39.72538757 1.29740906 C41.84962399 4.13490351 41.22531934 7.42401456 41.0625 10.8125 C40.84027796 15.9425195 41.04970485 20.16599996 43 25 C45.11925604 22.88074396 44.41831017 18.3803907 44.5625 15.4375 C44.62727539 14.22803711 44.62727539 14.22803711 44.69335938 12.99414062 C44.79975262 10.99631195 44.90040888 8.9981793 45 7 C45.33 7 45.66 7 46 7 C46.06058594 7.95261719 46.12117188 8.90523437 46.18359375 9.88671875 C46.26738281 11.14097656 46.35117188 12.39523438 46.4375 13.6875 C46.51871094 14.92886719 46.59992188 16.17023438 46.68359375 17.44921875 C46.95890835 21.26387858 46.95890835 21.26387858 48 26 C53.28 26 58.56 26 64 26 C64 27.32 64 28.64 64 30 C65.98 30.33 67.96 30.66 70 31 C69.67 31.66 69.34 32.32 69 33 C65.91674642 33.0582253 62.83363495 33.09367134 59.75 33.125 C58.44095703 33.15013672 58.44095703 33.15013672 57.10546875 33.17578125 C56.26113281 33.18222656 55.41679688 33.18867188 54.546875 33.1953125 C53.77182617 33.20578613 52.99677734 33.21625977 52.19824219 33.22705078 C49.74116461 32.97326556 48.12688458 32.22444152 46 31 C46 30.34 46 29.68 46 29 C44.02 29 42.04 29 40 29 C38.06102788 25.72075593 37.70674472 23.14466781 37.5859375 19.359375 C37.55032715 18.39483398 37.5147168 17.43029297 37.47802734 16.43652344 C37.44402832 15.2199707 37.4100293 14.00341797 37.375 12.75 C37.25125 8.8725 37.1275 4.995 37 1 C24.79 1 12.58 1 0 1 C0 0.67 0 0.34 0 0 Z " fill="#23926D" transform="translate(64,200)"/>
<path d="M0 0 C3.85425196 2.19267484 5.93823737 4.22304397 7.75 8.375 C8.05568474 12.06869058 7.98675107 15.67905273 7.75 19.375 C5.75 16.375 5.75 16.375 5.8125 12.8125 C5.7815625 11.1109375 5.7815625 11.1109375 5.75 9.375 C4.76 8.715 3.77 8.055 2.75 7.375 C2.75 6.055 2.75 4.735 2.75 3.375 C-0.16634129 3.1247843 -0.16634129 3.1247843 -3.25 3.375 C-4.24 4.86 -4.24 4.86 -5.25 6.375 C-3.93 7.035 -2.61 7.695 -1.25 8.375 C-2.24 9.86 -2.24 9.86 -3.25 11.375 C-3.58 10.385 -3.91 9.395 -4.25 8.375 C-7.12450983 8.12451364 -7.12450983 8.12451364 -10.25 8.375 C-11.24 9.365 -12.23 10.355 -13.25 11.375 C-9.29 11.705 -5.33 12.035 -1.25 12.375 C-1.25 12.705 -1.25 13.035 -1.25 13.375 C-11.645 13.87 -11.645 13.87 -22.25 14.375 C-24.25 8.375 -24.25 8.375 -22.875 5.25 C-16.54822881 -1.67932083 -8.67352425 -3.8227755 0 0 Z " fill="#2C3141" transform="translate(390.25,239.625)"/>
<path d="M0 0 C2.97 0.495 2.97 0.495 6 1 C6.103125 1.61875 6.20625 2.2375 6.3125 2.875 C6.87525373 5.36526484 6.87525373 5.36526484 10 7 C10.29296875 9.3828125 10.29296875 9.3828125 10.1875 12.125 C10.16042969 13.03507813 10.13335937 13.94515625 10.10546875 14.8828125 C10.07066406 15.58148438 10.03585937 16.28015625 10 17 C6.06251542 17.02898816 2.12505821 17.04679464 -1.8125 17.0625 C-2.93205078 17.07087891 -4.05160156 17.07925781 -5.20507812 17.08789062 C-6.81479492 17.09272461 -6.81479492 17.09272461 -8.45703125 17.09765625 C-9.9416687 17.10551147 -9.9416687 17.10551147 -11.45629883 17.11352539 C-14 17 -14 17 -17 16 C-18.32 16.33 -19.64 16.66 -21 17 C-21 14.03 -21 11.06 -21 8 C-20.34 8.66 -19.68 9.32 -19 10 C-16.17554408 10.94148531 -14.85828382 11.07311695 -11.98828125 10.87890625 C-10.85229492 10.80639648 -10.85229492 10.80639648 -9.69335938 10.73242188 C-8.90767578 10.67634766 -8.12199219 10.62027344 -7.3125 10.5625 C-6.51521484 10.51029297 -5.71792969 10.45808594 -4.89648438 10.40429688 C-2.93063478 10.27480978 -0.96526335 10.13809959 1 10 C0.65555119 7.52733235 0.65555119 7.52733235 0 5 C-0.66 4.67 -1.32 4.34 -2 4 C-1.34 2.68 -0.68 1.36 0 0 Z " fill="#2D3343" transform="translate(387,242)"/>
<path d="M0 0 C0.5775 0.165 1.155 0.33 1.75 0.5 C4.26664369 1.14462031 4.26664369 1.14462031 8 1 C8 10.57 8 20.14 8 30 C6.02 30.99 6.02 30.99 4 32 C4.66 30.35 5.32 28.7 6 27 C3.69 27.33 1.38 27.66 -1 28 C-1.02891949 23.70834738 -1.04677118 19.41671964 -1.0625 15.125 C-1.07087891 13.90167969 -1.07925781 12.67835938 -1.08789062 11.41796875 C-1.09111328 10.25136719 -1.09433594 9.08476562 -1.09765625 7.8828125 C-1.10289307 6.80402832 -1.10812988 5.72524414 -1.11352539 4.61376953 C-1 2 -1 2 0 0 Z " fill="#2C3242" transform="translate(352,230)"/>
<path d="M0 0 C1.39456452 0.00667256 2.78911118 0.01863093 4.18359375 0.03515625 C4.89451172 0.03966797 5.60542969 0.04417969 6.33789062 0.04882812 C8.09899388 0.06064761 9.86005411 0.07858362 11.62109375 0.09765625 C13.8829625 4.52569931 13.74682058 8.4575034 13.37109375 13.28515625 C13.33113281 14.00896484 13.29117188 14.73277344 13.25 15.47851562 C12.88109156 20.83765844 12.88109156 20.83765844 10.62109375 23.09765625 C7.32394582 22.76794146 5.99840985 22.47497235 3.62109375 20.09765625 C3.22061931 17.77490448 2.88138335 15.44026268 2.62109375 13.09765625 C1.96109375 14.74765625 1.30109375 16.39765625 0.62109375 18.09765625 C-0.51623051 14.69363677 -0.21880582 12.32308961 0.55859375 8.84765625 C0.75324219 7.955625 0.94789063 7.06359375 1.1484375 6.14453125 C1.38240234 5.13132813 1.38240234 5.13132813 1.62109375 4.09765625 C2.61109375 4.09765625 3.60109375 4.09765625 4.62109375 4.09765625 C4.62109375 4.75765625 4.62109375 5.41765625 4.62109375 6.09765625 C5.94109375 6.09765625 7.26109375 6.09765625 8.62109375 6.09765625 C8.95109375 6.75765625 9.28109375 7.41765625 9.62109375 8.09765625 C9.62109375 6.11765625 9.62109375 4.13765625 9.62109375 2.09765625 C7.99566295 2.23860689 6.37075324 2.38557712 4.74609375 2.53515625 C3.84117187 2.61636719 2.93625 2.69757813 2.00390625 2.78125 C-0.39001486 2.9675491 -0.39001486 2.9675491 -2.37890625 4.09765625 C-2.37890625 5.74765625 -2.37890625 7.39765625 -2.37890625 9.09765625 C-3.36890625 9.09765625 -4.35890625 9.09765625 -5.37890625 9.09765625 C-4.3821279 0.1266511 -4.3821279 0.1266511 0 0 Z " fill="#389A79" transform="translate(129.37890625,249.90234375)"/>
<path d="M0 0 C0.98484375 -0.00128906 1.9696875 -0.00257813 2.984375 -0.00390625 C4.02078125 -0.00003906 5.0571875 0.00382812 6.125 0.0078125 C7.67960938 0.00201172 7.67960938 0.00201172 9.265625 -0.00390625 C10.25046875 -0.00261719 11.2353125 -0.00132812 12.25 0 C13.16007812 0.00112793 14.07015625 0.00225586 15.0078125 0.00341797 C17.125 0.1328125 17.125 0.1328125 18.125 1.1328125 C18.56099819 4.19826697 18.68845697 7.29347796 18.875 10.3828125 C18.97748047 11.67251953 18.97748047 11.67251953 19.08203125 12.98828125 C19.37977865 17.94310335 19.3782901 21.07458464 16.125 25.1328125 C14.145 24.8028125 12.165 24.4728125 10.125 24.1328125 C9.465 21.8228125 8.805 19.5128125 8.125 17.1328125 C4.825 20.4328125 1.525 23.7328125 -1.875 27.1328125 C-2.535 26.8028125 -3.195 26.4728125 -3.875 26.1328125 C-3.545 24.8128125 -3.215 23.4928125 -2.875 22.1328125 C-1.555 21.8028125 -0.235 21.4728125 1.125 21.1328125 C1.125 20.4728125 1.125 19.8128125 1.125 19.1328125 C1.785 19.1328125 2.445 19.1328125 3.125 19.1328125 C3.24875 18.3490625 3.3725 17.5653125 3.5 16.7578125 C4.125 14.1328125 4.125 14.1328125 6.125 12.1328125 C6.125 12.7928125 6.125 13.4528125 6.125 14.1328125 C7.775 13.8028125 9.425 13.4728125 11.125 13.1328125 C11.41375 14.2671875 11.7025 15.4015625 12 16.5703125 C12.37125 17.7459375 12.7425 18.9215625 13.125 20.1328125 C13.785 20.4628125 14.445 20.7928125 15.125 21.1328125 C15.125 15.1928125 15.125 9.2528125 15.125 3.1328125 C9.185 3.1328125 3.245 3.1328125 -2.875 3.1328125 C-2.545 4.7828125 -2.215 6.4328125 -1.875 8.1328125 C-0.555 8.4628125 0.765 8.7928125 2.125 9.1328125 C-3.28639241 9.49357199 -3.28639241 9.49357199 -5.8125 7.9453125 C-6.875 6.1328125 -6.875 6.1328125 -6.625 3.5078125 C-5.34374698 -0.54948874 -4.03024886 0.004995 0 0 Z " fill="#399474" transform="translate(123.875,277.8671875)"/>
<path d="M0 0 C1.4540625 0.0309375 1.4540625 0.0309375 2.9375 0.0625 C4.57771812 3.14002265 5.09079151 4.50823414 4.14453125 7.9296875 C3.68433594 8.92226562 3.22414062 9.91484375 2.75 10.9375 C2.27820313 11.98164063 1.80640625 13.02578125 1.3203125 14.1015625 C0.86398438 15.07867187 0.40765625 16.05578125 -0.0625 17.0625 C-0.67260502 18.4766194 -1.27812393 19.89274623 -1.875 21.3125 C-2.266875 22.22 -2.65875 23.1275 -3.0625 24.0625 C-3.3925 23.0725 -3.7225 22.0825 -4.0625 21.0625 C-5.0525 20.7325 -6.0425 20.4025 -7.0625 20.0625 C-7.3925 20.7225 -7.7225 21.3825 -8.0625 22.0625 C-9.7125 22.0625 -11.3625 22.0625 -13.0625 22.0625 C-13.0625 21.4025 -13.0625 20.7425 -13.0625 20.0625 C-12.4025 20.0625 -11.7425 20.0625 -11.0625 20.0625 C-10.89234375 19.52882813 -10.7221875 18.99515625 -10.546875 18.4453125 C-4.57774845 0.09342344 -4.57774845 0.09342344 0 0 Z " fill="#3C4253" transform="translate(241.0625,238.9375)"/>
<path d="M0 0 C0 0.99 0 1.98 0 3 C13.53 3 27.06 3 41 3 C41 3.33 41 3.66 41 4 C39.26713745 4.03758423 39.26713745 4.03758423 37.49926758 4.07592773 C33.20342371 4.17026945 28.90773146 4.27042437 24.61206055 4.37231445 C22.75467481 4.41556221 20.89725192 4.45724428 19.03979492 4.49731445 C16.36625992 4.5552637 13.69291019 4.61888652 11.01953125 4.68359375 C10.19226028 4.70030624 9.36498932 4.71701874 8.51264954 4.73423767 C4.56096105 4.8352296 0.85881731 5.04295881 -3 6 C-3 4.68 -3 3.36 -3 2 C-4.98020421 2.44033992 -4.98020421 2.44033992 -7 4 C-9.46115519 9.47938491 -10.44454533 14.13846348 -10.43237305 20.16015625 C-10.4425647 20.93185654 -10.45275635 21.70355682 -10.46325684 22.49864197 C-10.49317202 25.02000389 -10.50261945 27.5409846 -10.51171875 30.0625 C-10.52858143 31.82227825 -10.54673379 33.58204457 -10.56611633 35.34179688 C-10.61345006 39.95139844 -10.64336666 44.56095162 -10.66955566 49.17071533 C-10.69944544 53.88343862 -10.74594671 58.5959955 -10.79101562 63.30859375 C-10.87685936 72.53897515 -10.94428848 81.76939097 -11 91 C-11.33 91 -11.66 91 -12 91 C-12.06951408 79.87338643 -12.1228185 68.74682454 -12.15543652 57.62003803 C-12.17109162 52.4534011 -12.19232722 47.28691275 -12.22631836 42.12036133 C-12.25891711 37.13423896 -12.27685418 32.14825951 -12.28463173 27.1620388 C-12.29017429 25.2598362 -12.30099755 23.35764141 -12.31719017 21.45549965 C-12.33897126 18.79088062 -12.34196664 16.12685195 -12.34057617 13.4621582 C-12.351362 12.67597107 -12.36214783 11.88978394 -12.3732605 11.07977295 C-12.34775188 6.56138323 -11.90057122 3.5401488 -9 0 C-5.52176885 -1.15941038 -3.54104422 -0.70820884 0 0 Z " fill="#79C1A9" transform="translate(60,198)"/>
<path d="M0 0 C1.06992188 0.01289063 2.13984375 0.02578125 3.2421875 0.0390625 C4.35335937 0.07257813 5.46453125 0.10609375 6.609375 0.140625 C7.73601562 0.15867187 8.86265625 0.17671875 10.0234375 0.1953125 C12.80294396 0.24242278 15.5807284 0.30819139 18.359375 0.390625 C14.58392175 2.90759383 10.84679248 4.58986676 6.359375 5.390625 C3.609375 4.015625 3.609375 4.015625 1.359375 2.390625 C-1.38301643 2.60391949 -1.38301643 2.60391949 -3.640625 3.390625 C-3.02784888 6.35237623 -2.38689978 7.77121283 -0.640625 10.390625 C-0.94828011 15.15927913 -1.59750387 19.03196659 -3.640625 23.390625 C-3.970625 23.390625 -4.300625 23.390625 -4.640625 23.390625 C-4.640625 21.740625 -4.640625 20.090625 -4.640625 18.390625 C-6.620625 19.380625 -6.620625 19.380625 -8.640625 20.390625 C-9.00491277 18.4758562 -9.35667806 16.55870207 -9.703125 14.640625 C-9.90035156 13.57328125 -10.09757812 12.5059375 -10.30078125 11.40625 C-10.62364286 8.54131711 -10.77666905 7.00297751 -9.640625 4.390625 C-6.59778536 0.64209157 -4.79158759 -0.10194867 0 0 Z " fill="#1E966E" transform="translate(110.640625,267.609375)"/>
<path d="M0 0 C0.66 0.33 1.32 0.66 2 1 C1.67 27.73 1.34 54.46 1 82 C0.67 82 0.34 82 0 82 C-1.10582803 66.38490208 -1.15597683 50.77799417 -1.13037109 35.13232422 C-1.12457462 31.5378872 -1.12803125 27.94352325 -1.13394356 24.34908867 C-1.13754024 21.56282996 -1.13641645 18.77658895 -1.13381577 15.99032974 C-1.13282638 14.0198283 -1.13585786 12.04932617 -1.13894653 10.0788269 C-1.13579437 8.89894196 -1.13264221 7.71905701 -1.12939453 6.50341797 C-1.12859894 5.46152313 -1.12780334 4.4196283 -1.12698364 3.34616089 C-1 1 -1 1 0 0 Z " fill="#429B7E" transform="translate(56,203)"/>
<path d="M0 0 C3.4375 0.8125 3.4375 0.8125 7 2 C7.33 2.99 7.66 3.98 8 5 C11.00007271 6.70855022 11.00007271 6.70855022 14 8 C13.67 8.99 13.34 9.98 13 11 C13.99 11.66 14.98 12.32 16 13 C16.33 13.99 16.66 14.98 17 16 C17.9590625 16.2165625 17.9590625 16.2165625 18.9375 16.4375 C21 17 21 17 22.25 19.0625 C22.4975 19.701875 22.745 20.34125 23 21 C22.34 21 21.68 21 21 21 C21 21.99 21 22.98 21 24 C21.66 24 22.32 24 23 24 C23 24.66 23 25.32 23 26 C21.68 26 20.36 26 19 26 C18.7525 25.195625 18.505 24.39125 18.25 23.5625 C17.27761141 20.828919 17.27761141 20.828919 14.875 20.1875 C13.946875 20.0946875 13.946875 20.0946875 13 20 C12.87625 19.13375 12.87625 19.13375 12.75 18.25 C11.7973369 15.39201069 10.13946926 14.07045412 8 12 C8 11.34 8 10.68 8 10 C7.38125 9.690625 6.7625 9.38125 6.125 9.0625 C4.75 8.375 3.375 7.6875 2 7 C2 6.01 2 5.02 2 4 C0.35 4.33 -1.3 4.66 -3 5 C-1.125 1.125 -1.125 1.125 0 0 Z " fill="#1E986E" transform="translate(111,200)"/>
<path d="M0 0 C1.670625 0.37125 1.670625 0.37125 3.375 0.75 C5.58197322 5.16394644 4.68449289 11.07686427 4.72509766 15.98071289 C4.74168083 17.45027476 4.76900274 18.9197552 4.80712891 20.38891602 C4.86183448 22.50840018 4.88375469 24.6259993 4.8984375 26.74609375 C4.91825684 28.01638428 4.93807617 29.2866748 4.95849609 30.59545898 C4.375 33.75 4.375 33.75 1.95556641 35.55102539 C1.10397949 35.94668701 0.25239258 36.34234863 -0.625 36.75 C-2.40844178 38.81954847 -2.40844178 38.81954847 -3.625 40.75 C-5.7769437 37.52208445 -5.82586443 36.46599191 -5.625 32.75 C-6.285 32.75 -6.945 32.75 -7.625 32.75 C-7.55623657 28.37117544 -7.46832917 23.99328479 -7.36254883 19.61523438 C-7.32926537 18.12543428 -7.30124403 16.63550705 -7.27856445 15.14550781 C-7.24507929 13.00530748 -7.19277211 10.86627581 -7.13671875 8.7265625 C-7.11053467 7.43830566 -7.08435059 6.15004883 -7.05737305 4.82275391 C-6.84334839 3.30174072 -6.84334839 3.30174072 -6.625 1.75 C-3.625 -0.25 -3.625 -0.25 0 0 Z M-4.625 1.75 C-5.98200647 4.46401294 -5.7373861 6.59846316 -5.72265625 9.6328125 C-5.71943359 10.79941406 -5.71621094 11.96601563 -5.71289062 13.16796875 C-5.70451172 14.39128906 -5.69613281 15.61460937 -5.6875 16.875 C-5.68298828 18.10605469 -5.67847656 19.33710938 -5.67382812 20.60546875 C-5.6620133 23.65369392 -5.64554028 26.70182314 -5.625 29.75 C-2.16 29.255 -2.16 29.255 1.375 28.75 C0.385 31.225 0.385 31.225 -0.625 33.75 C0.695 33.09 2.015 32.43 3.375 31.75 C3.375 22.18 3.375 12.61 3.375 2.75 C2.055 2.75 0.735 2.75 -0.625 2.75 C-1.96664079 2.4518576 -3.30351173 2.12756808 -4.625 1.75 Z " fill="#505664" transform="translate(356.625,228.25)"/>
<path d="M0 0 C0.33 0.66 0.66 1.32 1 2 C0.01 2 -0.98 2 -2 2 C-1.67 2.99 -1.34 3.98 -1 5 C-1.99 5 -2.98 5 -4 5 C-2.35 5.99 -0.7 6.98 1 8 C0.01 8.33 -0.98 8.66 -2 9 C-2.33 9.99 -2.66 10.98 -3 12 C-3 11.01 -3 10.02 -3 9 C-3.66 9 -4.32 9 -5 9 C-5 8.34 -5 7.68 -5 7 C-8.63 7 -12.26 7 -16 7 C-16.33 5.02 -16.66 3.04 -17 1 C-18.32 0.67 -19.64 0.34 -21 0 C-13.97732015 -3.73546801 -7.17938575 -3.81404868 0 0 Z " fill="#4B505D" transform="translate(275,241)"/>
<path d="M0 0 C0.25 6.625 0.25 6.625 -2 10 C-2.66 10 -3.32 10 -4 10 C-4 11.65 -4 13.3 -4 15 C-4.99 15 -5.98 15 -7 15 C-7 15.66 -7 16.32 -7 17 C-8.65 17 -10.3 17 -12 17 C-12.35050464 11.158256 -12.16727335 7.1468192 -9 2 C-8.34 2 -7.68 2 -7 2 C-7 1.34 -7 0.68 -7 0 C-3.98968256 -0.93423645 -3.13349732 -1.04449911 0 0 Z " fill="#4A4E5A" transform="translate(259,242)"/>
<path d="M0 0 C0.33 1.32 0.66 2.64 1 4 C1.87736816 4.029729 1.87736816 4.029729 2.77246094 4.06005859 C5.43208025 4.15553481 8.09093838 4.26512142 10.75 4.375 C11.67039062 4.4059375 12.59078125 4.436875 13.5390625 4.46875 C14.42851563 4.50742187 15.31796875 4.54609375 16.234375 4.5859375 C17.05131836 4.6173584 17.86826172 4.6487793 18.70996094 4.68115234 C21.16832958 5.02343693 22.85759999 5.7739277 25 7 C25 9.31 25 11.62 25 14 C22.54724859 15.2263757 20.9494219 15.11415314 18.2109375 15.09765625 C17.26992187 15.09443359 16.32890625 15.09121094 15.359375 15.08789062 C14.37453125 15.07951172 13.3896875 15.07113281 12.375 15.0625 C10.88613281 15.05573242 10.88613281 15.05573242 9.3671875 15.04882812 C6.9113984 15.03702145 4.45572896 15.020554 2 15 C2 14.67 2 14.34 2 14 C9.92 13.505 9.92 13.505 18 13 C17.01 12.01 16.02 11.02 15 10 C15.66 10 16.32 10 17 10 C17 9.34 17 8.68 17 8 C15.85660156 8.01160156 14.71320313 8.02320313 13.53515625 8.03515625 C12.04427246 8.04453288 10.55338691 8.05363321 9.0625 8.0625 C7.93038086 8.07506836 7.93038086 8.07506836 6.77539062 8.08789062 C4.85005687 8.09652441 2.92464419 8.05224333 1 8 C0 7 0 7 -0.0625 3.4375 C-0.041875 2.303125 -0.02125 1.16875 0 0 Z " fill="#469C7E" transform="translate(57,292)"/>
<path d="M0 0 C2.5625 0.4375 2.5625 0.4375 4.25 2.5 C5.70446373 5.75522834 6.68258884 8.98554085 7.5625 12.4375 C6.9025 12.4375 6.2425 12.4375 5.5625 12.4375 C5.2325 14.4175 4.9025 16.3975 4.5625 18.4375 C3.9025 18.4375 3.2425 18.4375 2.5625 18.4375 C2.2325 19.4275 1.9025 20.4175 1.5625 21.4375 C0.55105432 19.21292155 -0.44670265 16.98375709 -1.4375 14.75 C-1.72367188 14.12416016 -2.00984375 13.49832031 -2.3046875 12.85351562 C-3.87993221 9.2717092 -5.00322906 6.36224536 -4.4375 2.4375 C-2.4375 0.4375 -2.4375 0.4375 0 0 Z " fill="#434956" transform="translate(217.4375,238.5625)"/>
<path d="M0 0 C0.33 0 0.66 0 1 0 C1 2.31 1 4.62 1 7 C2.65 7 4.3 7 6 7 C6 6.34 6 5.68 6 5 C6.99 5 7.98 5 9 5 C9 3.35 9 1.7 9 0 C9.33 0 9.66 0 10 0 C10.22786458 1.98567708 10.45572917 3.97135417 10.68359375 5.95703125 C10.97170735 8.19396393 10.97170735 8.19396393 12 11 C15.00847418 12.22520264 15.00847418 12.22520264 18 13 C16.7934375 13.8971875 16.7934375 13.8971875 15.5625 14.8125 C12.77672016 16.80947276 12.77672016 16.80947276 12 20 C6.75568784 18.35178761 3.40569387 15.47669873 0.6875 10.6875 C-0.24819177 7.0297958 -0.12786669 3.77206749 0 0 Z " fill="#4D5361" transform="translate(246,252)"/>
<path d="M0 0 C0.66 0 1.32 0 2 0 C2 0.66 2 1.32 2 2 C2.66 2 3.32 2 4 2 C3.67 2.99 3.34 3.98 3 5 C4.32 5 5.64 5 7 5 C7.33 4.34 7.66 3.68 8 3 C8.05398987 5.27057377 8.09278742 7.54151288 8.125 9.8125 C8.14820313 11.07707031 8.17140625 12.34164062 8.1953125 13.64453125 C8 17 8 17 6 20 C1.125 19.125 1.125 19.125 0 18 C-0.08631874 16.65732587 -0.10706473 15.31025678 -0.09765625 13.96484375 C-0.09443359 13.15595703 -0.09121094 12.34707031 -0.08789062 11.51367188 C-0.07951172 10.66353516 -0.07113281 9.81339844 -0.0625 8.9375 C-0.05798828 8.08349609 -0.05347656 7.22949219 -0.04882812 6.34960938 C-0.03700373 4.23304337 -0.01906769 2.11651315 0 0 Z " fill="#333946" transform="translate(442,239)"/>
<path d="M0 0 C4.66410366 1.47287484 4.66410366 1.47287484 6.15185547 3.80761719 C7.06326142 6.16352549 7.23123633 7.81345672 7.1953125 10.328125 C7.18564453 11.52695313 7.18564453 11.52695313 7.17578125 12.75 C7.15902344 13.575 7.14226562 14.4 7.125 15.25 C7.11597656 16.09046875 7.10695312 16.9309375 7.09765625 17.796875 C7.07415817 19.86470604 7.03828908 21.93238995 7 24 C4.6739143 24.38063221 2.33944736 24.71269945 0 25 C-1 24 -1 24 -1.09765625 21.71484375 C-1.08605469 20.79832031 -1.07445312 19.88179687 -1.0625 18.9375 C-1.05347656 18.01839844 -1.04445312 17.09929687 -1.03515625 16.15234375 C-1.02355469 15.44207031 -1.01195312 14.73179687 -1 14 C0.32 13.67 1.64 13.34 3 13 C3.27918509 8.1607918 3.25261627 5.65919331 0 2 C0 1.34 0 0.68 0 0 Z " fill="#4E957B" transform="translate(135,220)"/>
<path d="M0 0 C5.37016053 0.3427762 5.37016053 0.3427762 7.4375 2.5 C9.906266 4.87001536 12.70123249 4.68879552 16 5 C16.66 6.65 17.32 8.3 18 10 C15.77144426 10.0814222 13.54202345 10.13938079 11.3125 10.1875 C10.07113281 10.22230469 8.82976562 10.25710938 7.55078125 10.29296875 C3.77765161 9.98165442 1.95473016 9.3176508 -1 7 C-1.9375 4.4375 -1.9375 4.4375 -2 2 C-1.34 1.34 -0.68 0.68 0 0 Z " fill="#2C3342" transform="translate(302,262)"/>
<path d="M0 0 C0.91807938 -0.00637985 1.83615875 -0.0127597 2.78205872 -0.01933289 C4.26025337 -0.02100212 4.26025337 -0.02100212 5.76831055 -0.02270508 C6.78926315 -0.02603348 7.81021576 -0.02936188 8.86210632 -0.03279114 C11.02151032 -0.03785128 13.18092212 -0.04019974 15.34033203 -0.04003906 C18.63221241 -0.0422212 21.92375525 -0.0603748 25.21557617 -0.0793457 C27.31648649 -0.08228073 29.41739839 -0.0842648 31.51831055 -0.08520508 C32.49770096 -0.09239059 33.47709137 -0.09957611 34.48616028 -0.10697937 C39.81173418 -0.08931448 44.34680031 0.22278916 49.3425293 2.14526367 C49.8375293 3.13526367 49.8375293 3.13526367 50.3425293 4.14526367 C49.0225293 4.14526367 47.7025293 4.14526367 46.3425293 4.14526367 C46.3425293 3.48526367 46.3425293 2.82526367 46.3425293 2.14526367 C45.57666504 2.31276123 44.81080078 2.48025879 44.02172852 2.65283203 C39.13896248 3.30635155 34.39188042 3.15747546 29.4753418 3.02416992 C28.44061737 3.00055893 27.40589294 2.97694794 26.33981323 2.95262146 C23.04890091 2.87631158 19.75824352 2.79214712 16.4675293 2.70776367 C14.23056243 2.65451026 11.99358327 2.60177011 9.7565918 2.54956055 C4.28508137 2.42074087 -1.18624109 2.28547919 -6.6574707 2.14526367 C-6.6574707 2.80526367 -6.6574707 3.46526367 -6.6574707 4.14526367 C-8.3074707 4.47526367 -9.9574707 4.80526367 -11.6574707 5.14526367 C-9.19505443 1.32851844 -9.19505443 1.32851844 -6.83918762 0.5254364 C-4.51796213 0.12095376 -2.3561863 0.01115754 0 0 Z " fill="#60A68E" transform="translate(63.657470703125,192.854736328125)"/>
<path d="M0 0 C1.0625 1.875 1.0625 1.875 2 4 C1.67 4.66 1.34 5.32 1 6 C-3.68909708 7.08209933 -6.69097166 7.21980248 -11 5 C-11 4.34 -11 3.68 -11 3 C-12.65 3 -14.3 3 -16 3 C-16 3.66 -16 4.32 -16 5 C-16.66 5 -17.32 5 -18 5 C-18.1546875 5.8971875 -18.1546875 5.8971875 -18.3125 6.8125 C-19 9 -19 9 -20.53125 10.15625 C-22.8282328 13.0396965 -22.31551453 16.17202407 -22.1875 19.6875 C-22.17396484 20.38939453 -22.16042969 21.09128906 -22.14648438 21.81445312 C-22.11120182 23.54329829 -22.05739583 25.27174765 -22 27 C-22.45890625 26.37738281 -22.9178125 25.75476563 -23.390625 25.11328125 C-24.94689764 22.9844278 -24.94689764 22.9844278 -26.75 21.1875 C-28.66315673 17.83947572 -27.97472886 15.63898774 -27 12 C-25.0625 9.5625 -25.0625 9.5625 -23 8 C-22.34 8 -21.68 8 -21 8 C-20.7525 7.401875 -20.505 6.80375 -20.25 6.1875 C-18.77581746 3.60768056 -17.61286717 2.4184136 -15 1 C-11.87730993 1.16013795 -10.15467807 1.90332621 -7.5 3.5625 C-4.71844332 5.16189509 -3.15069341 5.27005944 0 5 C0 3.35 0 1.7 0 0 Z " fill="#499C7F" transform="translate(123,256)"/>
<path d="M0 0 C0.70125 -0.01675781 1.4025 -0.03351563 2.125 -0.05078125 C2.74375 0.06910156 3.3625 0.18898438 4 0.3125 C6.1642235 3.55883524 6.37569856 4.55551443 6 8.3125 C5.01 9.7975 5.01 9.7975 4 11.3125 C2.125 11.67578125 2.125 11.67578125 0 11.625 C-0.70125 11.62113281 -1.4025 11.61726563 -2.125 11.61328125 C-4 11.3125 -4 11.3125 -6 9.3125 C-6.25 5.8125 -6.25 5.8125 -6 2.3125 C-3.67471713 -0.01278287 -3.15334102 0.01738975 0 0 Z " fill="#464A58" transform="translate(446,261.6875)"/>
<path d="M0 0 C2.125 1.0625 2.125 1.0625 4.125 3.0625 C4.3125 5.625 4.3125 5.625 4.125 8.0625 C3.795 8.3925 3.465 8.7225 3.125 9.0625 C-0.49924385 8.62759074 -4.0855714 8.0279801 -7.6875 7.4375 C-10.7666839 6.7797351 -10.7666839 6.7797351 -12.875 8.0625 C-12.875 7.0725 -12.875 6.0825 -12.875 5.0625 C-11.885 5.0625 -10.895 5.0625 -9.875 5.0625 C-9.875 4.4025 -9.875 3.7425 -9.875 3.0625 C-9.215 3.0625 -8.555 3.0625 -7.875 3.0625 C-7.545 2.4025 -7.215 1.7425 -6.875 1.0625 C-10.175 1.0625 -13.475 1.0625 -16.875 1.0625 C-11.19826507 -2.72198995 -6.22523291 -2.02996725 0 0 Z " fill="#575B66" transform="translate(322.875,239.9375)"/>
<path d="M0 0 C0.33 0.66 0.66 1.32 1 2 C-2.01031744 2.93423645 -2.86650268 3.04449911 -6 2 C-5.67 10.25 -5.34 18.5 -5 27 C-4.34 26.67 -3.68 26.34 -3 26 C-2.34 26.66 -1.68 27.32 -1 28 C-0.67 28 -0.34 28 0 28 C0.33 19.75 0.66 11.5 1 3 C1.33 3 1.66 3 2 3 C2.02469575 7.09341499 2.04285793 11.18680121 2.05493164 15.28027344 C2.0599643 16.67318477 2.06679098 18.0660908 2.07543945 19.45898438 C2.08755152 21.45961246 2.09270412 23.46027888 2.09765625 25.4609375 C2.10289307 26.66540527 2.10812988 27.86987305 2.11352539 29.11083984 C2 32 2 32 1 34 C-1.875 34.125 -1.875 34.125 -5 34 C-7 32 -7 32 -7.22705078 28.92724609 C-7.21657715 27.63898926 -7.20610352 26.35073242 -7.1953125 25.0234375 C-7.1924826 24.33819 -7.18965271 23.6529425 -7.18673706 22.94692993 C-7.17553281 20.75610973 -7.15042859 18.56569684 -7.125 16.375 C-7.11497048 14.8906309 -7.10584458 13.4062554 -7.09765625 11.921875 C-7.07559294 8.28111739 -7.04106176 4.64059844 -7 1 C-4.53721199 -0.231394 -2.7204945 -0.07159196 0 0 Z " fill="#636872" transform="translate(294,239)"/>
<path d="M0 0 C1.32 0 2.64 0 4 0 C4 0.66 4 1.32 4 2 C3.01 2.495 3.01 2.495 2 3 C1.34 7.95 0.68 12.9 0 18 C10.56 18 21.12 18 32 18 C31.67 18.66 31.34 19.32 31 20 C26.78248718 20.04946113 22.56512832 20.08574827 18.34741211 20.10986328 C16.91281188 20.119917 15.47823211 20.13356194 14.04370117 20.15087891 C11.98090562 20.17515549 9.91838115 20.18648919 7.85546875 20.1953125 C6.61434326 20.20578613 5.37321777 20.21625977 4.09448242 20.22705078 C1 20 1 20 -2 18 C-2.27613568 15.24458159 -2.37257625 12.74908898 -2.3125 10 C-2.31572266 9.26265625 -2.31894531 8.5253125 -2.32226562 7.765625 C-2.26707949 2.26707949 -2.26707949 2.26707949 0 0 Z " fill="#5D9E87" transform="translate(89,287)"/>
<path d="M0 0 C5.35682133 -0.0741205 10.71334462 -0.12858776 16.07055664 -0.16479492 C17.89320067 -0.1798876 19.71580836 -0.20036395 21.53833008 -0.22631836 C24.157155 -0.26268103 26.77550007 -0.27972124 29.39453125 -0.29296875 C30.61811089 -0.31619453 30.61811089 -0.31619453 31.8664093 -0.33988953 C37.54937012 -0.34158264 37.54937012 -0.34158264 39.72319031 1.30619812 C41.81986538 4.08762451 41.26333269 7.23329329 41.125 10.5625 C41.0924498 12.00121905 41.06380333 13.44003172 41.0390625 14.87890625 C41.02649414 15.58031738 41.01392578 16.28172852 41.00097656 17.00439453 C40.99900539 21.03249477 41.46328456 25.012971 42 29 C41.34 29 40.68 29 40 29 C38.06102788 25.72075593 37.70674472 23.14466781 37.5859375 19.359375 C37.55032715 18.39483398 37.5147168 17.43029297 37.47802734 16.43652344 C37.44402832 15.2199707 37.4100293 14.00341797 37.375 12.75 C37.25125 8.8725 37.1275 4.995 37 1 C24.79 1 12.58 1 0 1 C0 0.67 0 0.34 0 0 Z " fill="#3D9678" transform="translate(64,200)"/>
<path d="M0 0 C0.66 0.33 1.32 0.66 2 1 C1.67 1.598125 1.34 2.19625 1 2.8125 C-0.20787988 5.05386471 -0.20787988 5.05386471 0 8 C1.65 8 3.3 8 5 8 C4.67 8.99 4.34 9.98 4 11 C7.96 11.33 11.92 11.66 16 12 C16 12.33 16 12.66 16 13 C5.605 13.495 5.605 13.495 -5 14 C-5.66 12.02 -6.32 10.04 -7 8 C-5.05660583 4.25716678 -3.51449462 2.34299641 0 0 Z " fill="#595E6B" transform="translate(373,240)"/>
<path d="M0 0 C1.39456452 0.00667256 2.78911118 0.01863093 4.18359375 0.03515625 C4.89451172 0.03966797 5.60542969 0.04417969 6.33789062 0.04882812 C8.09899388 0.06064761 9.86005411 0.07858362 11.62109375 0.09765625 C13.93402413 4.57344137 13.68163574 8.53644143 13.24609375 13.41015625 C13.189375 14.15072266 13.13265625 14.89128906 13.07421875 15.65429688 C12.93367964 17.46959368 12.7788228 19.28377222 12.62109375 21.09765625 C11.63109375 21.09765625 10.64109375 21.09765625 9.62109375 21.09765625 C9.62109375 19.77765625 9.62109375 18.45765625 9.62109375 17.09765625 C10.28109375 17.09765625 10.94109375 17.09765625 11.62109375 17.09765625 C11.47988661 15.1598136 11.33296502 13.2223867 11.18359375 11.28515625 C11.10238281 10.20621094 11.02117187 9.12726563 10.9375 8.015625 C10.71896914 5.0377572 10.71896914 5.0377572 9.62109375 2.09765625 C7.99566295 2.23860689 6.37075324 2.38557712 4.74609375 2.53515625 C3.84117187 2.61636719 2.93625 2.69757813 2.00390625 2.78125 C-0.39001486 2.9675491 -0.39001486 2.9675491 -2.37890625 4.09765625 C-2.37890625 5.74765625 -2.37890625 7.39765625 -2.37890625 9.09765625 C-3.36890625 9.09765625 -4.35890625 9.09765625 -5.37890625 9.09765625 C-4.3821279 0.1266511 -4.3821279 0.1266511 0 0 Z " fill="#449176" transform="translate(129.37890625,249.90234375)"/>
<path d="M0 0 C3.5625 0.1875 3.5625 0.1875 5.5625 2.1875 C5.8125 4.6875 5.8125 4.6875 5.5625 7.1875 C3.5625 9.1875 3.5625 9.1875 0.0625 9.5 C-1.67 9.3453125 -1.67 9.3453125 -3.4375 9.1875 C-5.4375 6.1875 -5.4375 6.1875 -5.125 3.5625 C-4.0642205 -0.102011 -4.03994519 0.22036065 0 0 Z " fill="#61646D" transform="translate(291.4375,226.8125)"/>
<path d="M0 0 C5.75 1.75 5.75 1.75 8 4 C9.11816115 8.69627682 9.08266818 13.20524584 9 18 C7 15 7 15 7 12 C6.34 11.67 5.68 11.34 5 11 C4.67 11.99 4.34 12.98 4 14 C3.01 13.67 2.02 13.34 1 13 C1 11.35 1 9.7 1 8 C1.66 7.67 2.32 7.34 3 7 C2.01 7 1.02 7 0 7 C-0.33 6.01 -0.66 5.02 -1 4 C-0.34 3.67 0.32 3.34 1 3 C0.67 2.01 0.34 1.02 0 0 Z " fill="#454957" transform="translate(272,242)"/>
<path d="M0 0 C3.0625 0.3125 3.0625 0.3125 4.9375 1.8125 C5.30875 2.3075 5.68 2.8025 6.0625 3.3125 C5.4025 3.3125 4.7425 3.3125 4.0625 3.3125 C4.0625 3.9725 4.0625 4.6325 4.0625 5.3125 C3.4025 5.3125 2.7425 5.3125 2.0625 5.3125 C1.01800089 8.44599732 1.12826355 9.30218256 2.0625 12.3125 C-4.03161765 10.17132353 -4.03161765 10.17132353 -5.9375 7.3125 C-5.60989052 2.8351705 -4.75632271 0.50599178 0 0 Z " fill="#52565F" transform="translate(335.9375,259.6875)"/>
<path d="M0 0 C0.33 0 0.66 0 1 0 C1.05807043 3.10408807 1.09361914 6.2080364 1.125 9.3125 C1.14175781 10.19357422 1.15851563 11.07464844 1.17578125 11.98242188 C1.18222656 12.82998047 1.18867188 13.67753906 1.1953125 14.55078125 C1.20578613 15.33106689 1.21625977 16.11135254 1.22705078 16.9152832 C1 19 1 19 -1 22 C-4 22.3125 -4 22.3125 -7 22 C-9 20 -9 20 -9.22705078 18.02880859 C-9.21657715 17.24328613 -9.20610352 16.45776367 -9.1953125 15.6484375 C-9.18886719 14.79765625 -9.18242187 13.946875 -9.17578125 13.0703125 C-9.15902344 12.18085938 -9.14226562 11.29140625 -9.125 10.375 C-9.11597656 9.4778125 -9.10695312 8.580625 -9.09765625 7.65625 C-9.0740497 5.43723414 -9.0411231 3.21874923 -9 1 C-8.67 1 -8.34 1 -8 1 C-7.67 5.95 -7.34 10.9 -7 16 C-5.02 15.67 -3.04 15.34 -1 15 C-0.67 10.05 -0.34 5.1 0 0 Z " fill="#8B8C95" transform="translate(210,251)"/>
<path d="M0 0 C0.33 0 0.66 0 1 0 C1.04487549 0.98395752 1.08975098 1.96791504 1.13598633 2.98168945 C1.30627619 6.63336051 1.49517324 10.28387246 1.68969727 13.93432617 C1.77127528 15.51415014 1.84780973 17.09424296 1.91918945 18.67456055 C2.02269554 20.94669771 2.14432855 23.21724913 2.26953125 25.48828125 C2.29779495 26.19463211 2.32605865 26.90098297 2.35517883 27.6287384 C2.58231178 31.57666818 2.58231178 31.57666818 4.5456543 34.90698242 C5.02558838 35.26767822 5.50552246 35.62837402 6 36 C6 36.33 6 36.66 6 37 C3.75 37.3125 3.75 37.3125 1 37 C-1.75615725 34.24384275 -3.42444124 31.88502164 -4 28 C-2.68 28.33 -1.36 28.66 0 29 C0 19.43 0 9.86 0 0 Z " fill="#24906A" transform="translate(55,266)"/>
<path d="M0 0 C1.32 0.66 2.64 1.32 4 2 C4 2.99 4 3.98 4 5 C3.360625 5.12375 2.72125 5.2475 2.0625 5.375 C1.381875 5.58125 0.70125 5.7875 0 6 C-0.33 6.66 -0.66 7.32 -1 8 C-1.66 8 -2.32 8 -3 8 C-3 9.32 -3 10.64 -3 12 C-2.34 12.66 -1.68 13.32 -1 14 C-2.65 14 -4.3 14 -6 14 C-6.185625 13.071875 -6.185625 13.071875 -6.375 12.125 C-6.87197356 9.80879168 -6.87197356 9.80879168 -9 8 C-9 7.01 -9 6.02 -9 5 C-8.34 4.67 -7.68 4.34 -7 4 C-6.67 3.34 -6.34 2.68 -6 2 C-3.03 2.495 -3.03 2.495 0 3 C0 2.01 0 1.02 0 0 Z " fill="#2E3347" transform="translate(233,258)"/>
<path d="M0 0 C1.85772162 0.08984301 3.71247985 0.24611861 5.5625 0.4375 C7.08037109 0.59025391 7.08037109 0.59025391 8.62890625 0.74609375 C9.80259766 0.87177734 9.80259766 0.87177734 11 1 C11.33 1.99 11.66 2.98 12 4 C11.54625 4.433125 11.0925 4.86625 10.625 5.3125 C8.79975666 7.10798342 8.79975666 7.10798342 7 10 C7 8.68 7 7.36 7 6 C4.03 6 1.06 6 -2 6 C-1.125 1.125 -1.125 1.125 0 0 Z " fill="#3D4356" transform="translate(313,254)"/>
<path d="M0 0 C0.99 0.33 1.98 0.66 3 1 C2.52449439 2.48034764 2.04448784 3.95925021 1.5625 5.4375 C1.29566406 6.26121094 1.02882812 7.08492188 0.75390625 7.93359375 C0 10 0 10 -1 11 C-4.3125 11.4375 -4.3125 11.4375 -8 11 C-10.4375 8 -10.4375 8 -12 5 C-9 5 -9 5 -6 6 C-6.33 7.32 -6.66 8.64 -7 10 C-4.8614515 7.8614515 -4.57344937 6.86724686 -4 4 C-3.34 4 -2.68 4 -2 4 C-1.34 2.68 -0.68 1.36 0 0 Z " fill="#404656" transform="translate(234,262)"/>
<path d="M0 0 C2.69101234 2.69101234 2.29887549 4.19075946 2.3125 7.9375 C2.32925781 8.99839844 2.34601563 10.05929687 2.36328125 11.15234375 C2 14 2 14 0.48046875 15.87890625 C-0.00808594 16.24886719 -0.49664062 16.61882812 -1 17 C-2 16 -2 16 -2.0625 13.4375 C-2.041875 12.633125 -2.02125 11.82875 -2 11 C-3.98 11.66 -5.96 12.32 -8 13 C-7.34 10.69 -6.68 8.38 -6 6 C-5.34 6.33 -4.68 6.66 -4 7 C-3.67 6.34 -3.34 5.68 -3 5 C-2.01 5.33 -1.02 5.66 0 6 C0 4.02 0 2.04 0 0 Z " fill="#4E545E" transform="translate(280,248)"/>
<path d="M0 0 C-0.639375 0.45375 -1.27875 0.9075 -1.9375 1.375 C-4.09702406 2.83921726 -4.09702406 2.83921726 -5 5 C-5.99 5.33 -6.98 5.66 -8 6 C-6.68 6.66 -5.36 7.32 -4 8 C-6.31 8.33 -8.62 8.66 -11 9 C-11.33 7.02 -11.66 5.04 -12 3 C-13.32 2.67 -14.64 2.34 -16 2 C-10.23826317 -1.06475363 -6.37259801 -1.19937786 0 0 Z " fill="#555864" transform="translate(270,239)"/>
<path d="M0 0 C2.44508741 1.97935648 3.19146218 3.45784435 4.4375 6.4375 C5.95109445 9.88849534 7.35292415 11.44420263 10 14 C10 14.99 10 15.98 10 17 C5.57258356 15.64717831 3.63690779 13.76701112 1 10 C-0.60725635 6.78548731 -0.05748185 3.56387464 0 0 Z " fill="#44997D" transform="translate(48,289)"/>
<path d="M0 0 C-0.99 0.33 -1.98 0.66 -3 1 C-1.48601545 4.78496138 -0.9855604 5.0072198 3 7 C-1.29 7 -5.58 7 -10 7 C-10.33 6.01 -10.66 5.02 -11 4 C-9.9375 1.875 -9.9375 1.875 -8 0 C-2.77333333 -1.38666667 -2.77333333 -1.38666667 0 0 Z " fill="#51535D" transform="translate(268,266)"/>
<path d="M0 0 C0.98484375 -0.00128906 1.9696875 -0.00257813 2.984375 -0.00390625 C4.02078125 -0.00003906 5.0571875 0.00382812 6.125 0.0078125 C7.67960938 0.00201172 7.67960938 0.00201172 9.265625 -0.00390625 C10.25046875 -0.00261719 11.2353125 -0.00132812 12.25 0 C13.16007812 0.00112793 14.07015625 0.00225586 15.0078125 0.00341797 C17.125 0.1328125 17.125 0.1328125 18.125 1.1328125 C18.16580783 3.13239614 18.16754356 5.13326504 18.125 7.1328125 C17.795 7.1328125 17.465 7.1328125 17.125 7.1328125 C16.795 5.4828125 16.465 3.8328125 16.125 2.1328125 C9.525 2.1328125 2.925 2.1328125 -3.875 2.1328125 C-3.215 4.1128125 -2.555 6.0928125 -1.875 8.1328125 C0.15743548 9.10158307 0.15743548 9.10158307 2.125 9.1328125 C-3.28639241 9.49357199 -3.28639241 9.49357199 -5.8125 7.9453125 C-6.875 6.1328125 -6.875 6.1328125 -6.625 3.5078125 C-5.34374698 -0.54948874 -4.03024886 0.004995 0 0 Z " fill="#50917B" transform="translate(123.875,277.8671875)"/>
<path d="M0 0 C0.99 0.66 1.98 1.32 3 2 C1.88625 2.12375 0.7725 2.2475 -0.375 2.375 C-4.03103677 2.6465813 -4.03103677 2.6465813 -6 5 C-7.98 4.01 -9.96 3.02 -12 2 C-12 2.66 -12 3.32 -12 4 C-12.66 4 -13.32 4 -14 4 C-14 4.66 -14 5.32 -14 6 C-14.66 6 -15.32 6 -16 6 C-16.12375 5.071875 -16.12375 5.071875 -16.25 4.125 C-16.81258459 1.81562433 -16.81258459 1.81562433 -19.0625 0.75 C-19.701875 0.5025 -20.34125 0.255 -21 0 C-19.35 0 -17.7 0 -16 0 C-15.67 0.99 -15.34 1.98 -15 3 C-14.34 3 -13.68 3 -13 3 C-13 2.34 -13 1.68 -13 1 C-8.24291273 -0.97245082 -5.02207144 -1.13707278 0 0 Z " fill="#6E737C" transform="translate(203,239)"/>
<path d="M0 0 C1.0625 1.875 1.0625 1.875 2 4 C1.67 4.66 1.34 5.32 1 6 C-3.68909708 7.08209933 -6.69097166 7.21980248 -11 5 C-11 4.34 -11 3.68 -11 3 C-12.65 3 -14.3 3 -16 3 C-16 3.66 -16 4.32 -16 5 C-16.66 5 -17.32 5 -18 5 C-18.04125 5.61875 -18.0825 6.2375 -18.125 6.875 C-18.41375 7.57625 -18.7025 8.2775 -19 9 C-22.0625 10.25 -22.0625 10.25 -25 11 C-24.34 10.01 -23.68 9.02 -23 8 C-22.34 8 -21.68 8 -21 8 C-20.7525 7.401875 -20.505 6.80375 -20.25 6.1875 C-18.77581746 3.60768056 -17.61286717 2.4184136 -15 1 C-11.87730993 1.16013795 -10.15467807 1.90332621 -7.5 3.5625 C-4.71844332 5.16189509 -3.15069341 5.27005944 0 5 C0 3.35 0 1.7 0 0 Z " fill="#83BBA8" transform="translate(123,256)"/>
<path d="M0 0 C0.66 0.33 1.32 0.66 2 1 C2.027193 2.58323688 2.04648306 4.16661062 2.0625 5.75 C2.07410156 6.63171875 2.08570313 7.5134375 2.09765625 8.421875 C2.00826198 10.7818838 1.66912821 12.74498524 1 15 C-0.32 14.67 -1.64 14.34 -3 14 C-3.33 11.69 -3.66 9.38 -4 7 C-3.01 6.67 -2.02 6.34 -1 6 C-0.67 4.02 -0.34 2.04 0 0 Z " fill="#23966B" transform="translate(139,227)"/>
<path d="M0 0 C0.33 0 0.66 0 1 0 C1.02464775 5.53588533 1.04283496 11.071739 1.05493164 16.60766602 C1.05997244 18.4924373 1.06680498 20.37720465 1.07543945 22.26196289 C1.08751617 24.96501636 1.09323068 27.66801831 1.09765625 30.37109375 C1.10281754 31.21900986 1.10797882 32.06692596 1.11329651 32.9405365 C1.11349195 34.96071068 1.06206211 36.98077934 1 39 C0 40 0 40 -2.5625 40.0625 C-3.366875 40.041875 -4.17125 40.02125 -5 40 C-4.525625 39.566875 -4.05125 39.13375 -3.5625 38.6875 C-0.2995335 35.16349618 -0.78742285 30.79374591 -0.68359375 26.26953125 C-0.66281265 25.51911057 -0.64203156 24.76868988 -0.62062073 23.99552917 C-0.55530074 21.60127816 -0.49632208 19.20691861 -0.4375 16.8125 C-0.39429807 15.18813987 -0.35068324 13.56379067 -0.30664062 11.93945312 C-0.19963737 7.95974629 -0.09832063 3.97993042 0 0 Z " fill="#282D3A" transform="translate(171,232)"/>
<path d="M0 0 C4.28792401 0.29938208 6.40067914 3.10070594 9.25 6.0625 C10.14203125 6.98160156 11.0340625 7.90070313 11.953125 8.84765625 C12.62859375 9.55792969 13.3040625 10.26820313 14 11 C12.68 11.33 11.36 11.66 10 12 C9.773125 11.360625 9.54625 10.72125 9.3125 10.0625 C8.14749104 7.72806339 8.14749104 7.72806339 5.375 7.25 C4.59125 7.1675 3.8075 7.085 3 7 C2.67 6.01 2.34 5.02 2 4 C0.50014391 2.33289654 0.50014391 2.33289654 -1 1 C-0.67 0.67 -0.34 0.34 0 0 Z " fill="#60AE92" transform="translate(124,209)"/>
<path d="M0 0 C-0.33 0.66 -0.66 1.32 -1 2 C-3.48412207 2.82804069 -5.35220307 3 -8 3 C-8.33 11.58 -8.66 20.16 -9 29 C-9.33 29 -9.66 29 -10 29 C-10.07409401 25.04907941 -10.12857406 21.09842706 -10.16479492 17.14697266 C-10.18732251 15.14080626 -10.2254357 13.13483474 -10.26367188 11.12890625 C-10.27333984 9.87207031 -10.28300781 8.61523438 -10.29296875 7.3203125 C-10.3086792 6.15773926 -10.32438965 4.99516602 -10.34057617 3.79736328 C-10.22818604 2.8742334 -10.1157959 1.95110352 -10 1 C-6.1496895 -1.56687367 -4.41430237 -0.83288724 0 0 Z " fill="#6C6F77" transform="translate(360,229)"/>
<path d="M0 0 C0.66 0 1.32 0 2 0 C2 0.99 2 1.98 2 3 C2.86625 3.37125 2.86625 3.37125 3.75 3.75 C6.32939979 5.18299988 8.06121592 6.78424676 10 9 C10 9.66 10 10.32 10 11 C10.99 11.33 11.98 11.66 13 12 C12.67 13.32 12.34 14.64 12 16 C10.17462467 14.28288416 8.36545173 12.55289578 6.5625 10.8125 C6.04623047 10.32974609 5.52996094 9.84699219 4.99804688 9.34960938 C1.94577922 6.37713957 0.30711342 4.30746259 0 0 Z " fill="#5AAA8E" transform="translate(111,204)"/>
<path d="M0 0 C5.45454545 0.45454545 5.45454545 0.45454545 8 3 C7.01 3 6.02 3 5 3 C5 3.66 5 4.32 5 5 C4.34 5 3.68 5 3 5 C2.67 5.99 2.34 6.98 2 8 C3.32 8.33 4.64 8.66 6 9 C5.01 9.495 5.01 9.495 4 10 C1.4375 8.875 1.4375 8.875 -1 7 C-1.9375 4.4375 -1.9375 4.4375 -2 2 C-1.34 1.34 -0.68 0.68 0 0 Z " fill="#62646F" transform="translate(302,262)"/>
<path d="M0 0 C1.875 0.1875 1.875 0.1875 4 1 C4.66 2.65 5.32 4.3 6 6 C0.06 6 -5.88 6 -12 6 C-12.33 4.68 -12.66 3.36 -13 2 C-12.01 2.495 -12.01 2.495 -11 3 C-8.62876754 3.23029956 -6.25258057 3.41119942 -3.875 3.5625 C-2.59367187 3.64628906 -1.31234375 3.73007813 0.0078125 3.81640625 C1.48894531 3.90728516 1.48894531 3.90728516 3 4 C3 3.34 3 2.68 3 2 C2.01 1.67 1.02 1.34 0 1 C0 0.67 0 0.34 0 0 Z " fill="#6FAC9A" transform="translate(124,220)"/>
<path d="M0 0 C0.33 0 0.66 0 1 0 C1.33 1.65 1.66 3.3 2 5 C2.99 4.67 3.98 4.34 5 4 C5 5.65 5 7.3 5 9 C0.545 9.495 0.545 9.495 -4 10 C-4 9.01 -4 8.02 -4 7 C-3.01 7 -2.02 7 -1 7 C-1.020625 6.030625 -1.04125 5.06125 -1.0625 4.0625 C-1 1 -1 1 0 0 Z " fill="#21946A" transform="translate(101,282)"/>
<path d="M0 0 C3.65231372 3.88794686 4.90919358 6.64242135 5 12 C4.21817318 14.82051447 3.18158604 17.30598382 2 20 C1.67 20 1.34 20 1 20 C1.01740234 18.83984375 1.01740234 18.83984375 1.03515625 17.65625 C1.08709845 11.66063636 0.91184156 5.92697017 0 0 Z " fill="#5FA78F" transform="translate(105,271)"/>
<path d="M0 0 C6.6 0 13.2 0 20 0 C16.18610403 2.54259732 12.58037387 4.37406466 8 5 C5.00879533 4.11645935 2.56648286 2.75527847 0 1 C0 0.67 0 0.34 0 0 Z " fill="#67AA94" transform="translate(109,268)"/>
<path d="M0 0 C2.0625 0.4375 2.0625 0.4375 4 1 C3.67 1.99 3.34 2.98 3 4 C3.66 4 4.32 4 5 4 C5 3.34 5 2.68 5 2 C5.66 2 6.32 2 7 2 C7 3.32 7 4.64 7 6 C6.01 6 5.02 6 4 6 C4 6.66 4 7.32 4 8 C2.35 8 0.7 8 -1 8 C-1.04241723 5.66705225 -1.04092937 3.33297433 -1 1 C-0.67 0.67 -0.34 0.34 0 0 Z " fill="#313446" transform="translate(248,251)"/>
<path d="M0 0 C0.33 0.66 0.66 1.32 1 2 C-2.01031744 2.93423645 -2.86650268 3.04449911 -6 2 C-6 11.9 -6 21.8 -6 32 C-6.33 32 -6.66 32 -7 32 C-7 21.77 -7 11.54 -7 1 C-4.53721199 -0.231394 -2.7204945 -0.07159196 0 0 Z " fill="#65686E" transform="translate(294,239)"/>
<path d="M0 0 C0.79921875 0.00902344 1.5984375 0.01804688 2.421875 0.02734375 C3.02515625 0.03894531 3.6284375 0.05054688 4.25 0.0625 C3.26 0.5575 3.26 0.5575 2.25 1.0625 C1.92 1.7225 1.59 2.3825 1.25 3.0625 C0.26 3.0625 -0.73 3.0625 -1.75 3.0625 C-1.75 3.7225 -1.75 4.3825 -1.75 5.0625 C-2.74 5.0625 -3.73 5.0625 -4.75 5.0625 C-5.08 6.3825 -5.41 7.7025 -5.75 9.0625 C-6.75 6.0625 -6.75 6.0625 -6.75 4.0625 C-7.41 3.7325 -8.07 3.4025 -8.75 3.0625 C-8.75 2.4025 -8.75 1.7425 -8.75 1.0625 C-5.75519083 0.1901588 -3.11424089 -0.04579766 0 0 Z " fill="#29303D" transform="translate(314.75,239.9375)"/>
<path d="M0 0 C-0.33 0.99 -0.66 1.98 -1 3 C-2.98 3 -4.96 3 -7 3 C-7.66 5.97 -8.32 8.94 -9 12 C-9.33 12 -9.66 12 -10 12 C-10 8.37 -10 4.74 -10 1 C-5.64467851 -1.17766075 -4.53374042 -1.03039555 0 0 Z " fill="#62676F" transform="translate(450,228)"/>
<path d="M0 0 C1 1 1 1 1.09765625 2.84765625 C1.04882812 5.92382812 1.04882812 5.92382812 1 9 C0.34 8.67 -0.32 8.34 -1 8 C-0.67 7.01 -0.34 6.02 0 5 C-1.32 5.33 -2.64 5.66 -4 6 C-4.33 5.01 -4.66 4.02 -5 3 C-4.67 2.34 -4.34 1.68 -4 1 C-5.65 1.66 -7.3 2.32 -9 3 C-9 2.34 -9 1.68 -9 1 C-5.65903378 -1.10357132 -3.7625171 -1.11858616 0 0 Z " fill="#696B72" transform="translate(423,239)"/>
<path d="M0 0 C0.33 0 0.66 0 1 0 C1.25 6.625 1.25 6.625 -1 10 C-2.65 9.67 -4.3 9.34 -6 9 C-5.67 7.35 -5.34 5.7 -5 4 C-4.34 4 -3.68 4 -3 4 C-2.67 3.34 -2.34 2.68 -2 2 C-1.34 1.34 -0.68 0.68 0 0 Z " fill="#5E616C" transform="translate(449,249)"/>
<path d="M0 0 C1.32 0 2.64 0 4 0 C4 0.66 4 1.32 4 2 C6.97 2 9.94 2 13 2 C13 2.33 13 2.66 13 3 C17.29 3.33 21.58 3.66 26 4 C26 4.33 26 4.66 26 5 C22.79197767 5.11698258 19.58450975 5.18750607 16.375 5.25 C15.01955078 5.30027344 15.01955078 5.30027344 13.63671875 5.3515625 C7.76160137 5.43733064 4.4834957 4.90257765 0 1 C0 0.67 0 0.34 0 0 Z " fill="#6AAA95" transform="translate(106,229)"/>
<path d="M0 0 C0 1.32 0 2.64 0 4 C1.32 4 2.64 4 4 4 C3.67 5.32 3.34 6.64 3 8 C0.33333333 7.33333333 -2.33333333 6.66666667 -5 6 C-4.625 3.5625 -4.625 3.5625 -4 1 C-2 0 -2 0 0 0 Z " fill="#2E3140" transform="translate(419,240)"/>
<path d="M0 0 C0.33 0.99 0.66 1.98 1 3 C0.2575 3.5775 -0.485 4.155 -1.25 4.75 C-3.66087643 6.72253526 -5.84042701 8.76044282 -8 11 C-8.66 10.67 -9.32 10.34 -10 10 C-9.34 8.68 -8.68 7.36 -8 6 C-7.34 6 -6.68 6 -6 6 C-6 5.34 -6 4.68 -6 4 C-5.34 4 -4.68 4 -4 4 C-4 3.34 -4 2.68 -4 2 C-2.68 1.34 -1.36 0.68 0 0 Z " fill="#59A289" transform="translate(127,287)"/>
<path d="M0 0 C0 0.99 0 1.98 0 3 C1.32 3.33 2.64 3.66 4 4 C2.8125 5.5625 2.8125 5.5625 1 7 C-1.6875 6.6875 -1.6875 6.6875 -4 6 C-4.33 4.68 -4.66 3.36 -5 2 C-2 0 -2 0 0 0 Z " fill="#2C3141" transform="translate(270,265)"/>
<path d="M0 0 C3.81484173 0.54497739 5.48786382 2.15291233 8 5 C10.28062828 8.42094242 10.21925007 9.68187222 10.125 13.6875 C10.10695313 14.68136719 10.08890625 15.67523438 10.0703125 16.69921875 C10.03550781 17.83810547 10.03550781 17.83810547 10 19 C8 16 8 16 8.0625 12.4375 C8.041875 11.303125 8.02125 10.16875 8 9 C7.01 8.34 6.02 7.68 5 7 C5 5.68 5 4.36 5 3 C3.68 3 2.36 3 1 3 C0.67 2.01 0.34 1.02 0 0 Z " fill="#6D6F79" transform="translate(388,240)"/>
<path d="M0 0 C3.1875 -0.3125 3.1875 -0.3125 6 0 C6.66 1.65 7.32 3.3 8 5 C6.906875 4.773125 5.81375 4.54625 4.6875 4.3125 C1.09468727 3.59853617 1.09468727 3.59853617 -0.9375 5.4375 C-1.288125 5.953125 -1.63875 6.46875 -2 7 C-2.33 6.34 -2.66 5.68 -3 5 C-1.9375 2.375 -1.9375 2.375 0 0 Z " fill="#6A6D77" transform="translate(238,239)"/>
<path d="M0 0 C0.33 0.66 0.66 1.32 1 2 C0.67 2.66 0.34 3.32 0 4 C3.58327753 5.00217064 3.58327753 5.00217064 7 4 C6.67 5.98 6.34 7.96 6 10 C5.67 9.01 5.34 8.02 5 7 C4.01 6.67 3.02 6.34 2 6 C1.67 6.66 1.34 7.32 1 8 C-0.65 8 -2.3 8 -4 8 C-4 7.34 -4 6.68 -4 6 C-3.34 6 -2.68 6 -2 6 C-1.34 4.02 -0.68 2.04 0 0 Z " fill="#565E69" transform="translate(232,253)"/>
<path d="M0 0 C1.65 0 3.3 0 5 0 C5.33 1.65 5.66 3.3 6 5 C4.02 5.66 2.04 6.32 0 7 C0 4.69 0 2.38 0 0 Z " fill="#2E3140" transform="translate(181,240)"/>
<path d="M0 0 C1.134375 0.020625 2.26875 0.04125 3.4375 0.0625 C-0.1875 5.9375 -0.1875 5.9375 -3.5625 7.0625 C-3.94383299 5.0710944 -4.27575582 3.06970923 -4.5625 1.0625 C-3.5625 0.0625 -3.5625 0.0625 0 0 Z " fill="#4C4F56" transform="translate(290.5625,227.9375)"/>
<path d="M0 0 C0.33 1.32 0.66 2.64 1 4 C6.28 4.33 11.56 4.66 17 5 C17 5.33 17 5.66 17 6 C11.555 6.495 11.555 6.495 6 7 C6 7.33 6 7.66 6 8 C4.33388095 8.042721 2.66617115 8.04063832 1 8 C0 7 0 7 -0.0625 3.4375 C-0.041875 2.303125 -0.02125 1.16875 0 0 Z " fill="#70C28E" transform="translate(57,292)"/>
<path d="M0 0 C0.33 0 0.66 0 1 0 C1.02693575 2.12493141 1.04636628 4.24995912 1.0625 6.375 C1.07410156 7.55835938 1.08570313 8.74171875 1.09765625 9.9609375 C1 13 1 13 0 15 C-2.31 15 -4.62 15 -7 15 C-7 14.34 -7 13.68 -7 13 C-5.35 12.67 -3.7 12.34 -2 12 C-1.34 8.04 -0.68 4.08 0 0 Z " fill="#5F616A" transform="translate(412,258)"/>
<path d="M0 0 C2.24519581 4.49039163 2.04965789 7.44287263 1.625 12.25 C1.53992188 13.36761719 1.53992188 13.36761719 1.453125 14.5078125 C1.31223742 16.33935108 1.15748116 18.16981352 1 20 C0.01 20 -0.98 20 -2 20 C-2 18.68 -2 17.36 -2 16 C-1.34 16 -0.68 16 0 16 C0 10.72 0 5.44 0 0 Z " fill="#5BA18C" transform="translate(141,251)"/>
<path d="M0 0 C1.07735006 3.23205018 0.92640423 4.33577435 0.1875 7.5625 C-0.06966797 8.74005859 -0.06966797 8.74005859 -0.33203125 9.94140625 C-1 12 -1 12 -3 14 C-3.32374517 8.49633208 -3.53286034 4.56327794 0 0 Z " fill="#64A78F" transform="translate(51,198)"/>
<path d="M0 0 C7.48291572 6.15034169 7.48291572 6.15034169 10 10 C8.68 10 7.36 10 6 10 C5.34 9.34 4.68 8.68 4 8 C3.01 7.67 2.02 7.34 1 7 C1.66 7 2.32 7 3 7 C3 6.01 3 5.02 3 4 C2.01 4 1.02 4 0 4 C0 2.68 0 1.36 0 0 Z " fill="#60A792" transform="translate(115,198)"/>
<path d="M0 0 C0.33 0 0.66 0 1 0 C1.94693195 3.7016431 2.30443767 5.39112465 0.5625 8.875 C0.046875 9.57625 -0.46875 10.2775 -1 11 C-3.97 10.505 -3.97 10.505 -7 10 C-7 9.34 -7 8.68 -7 8 C-5.35 8 -3.7 8 -2 8 C-1.34 5.36 -0.68 2.72 0 0 Z " fill="#66A18E" transform="translate(141,292)"/>
<path d="M0 0 C0.33 0.66 0.66 1.32 1 2 C-1.99481865 6.31606218 -1.99481865 6.31606218 -4 8 C-7.3125 7.875 -7.3125 7.875 -10 7 C-10 6.67 -10 6.34 -10 6 C-8.35 6 -6.7 6 -5 6 C-4.5978125 4.7934375 -4.5978125 4.7934375 -4.1875 3.5625 C-3.795625 2.716875 -3.40375 1.87125 -3 1 C-2.01 0.67 -1.02 0.34 0 0 Z " fill="#494F5C" transform="translate(359,263)"/>
<path d="M0 0 C2.7972908 2.06756277 3.02692273 3.14440371 3.6875 6.6875 C3.790625 7.780625 3.89375 8.87375 4 10 C3.01 10 2.02 10 1 10 C-0.60725635 6.78548731 -0.05748185 3.56387464 0 0 Z " fill="#53A184" transform="translate(48,289)"/>
<path d="M0 0 C0.86625 0.37125 0.86625 0.37125 1.75 0.75 C-0.23 1.74 -0.23 1.74 -2.25 2.75 C-2.25 4.07 -2.25 5.39 -2.25 6.75 C-2.91 7.41 -3.57 8.07 -4.25 8.75 C-5.24 8.42 -6.23 8.09 -7.25 7.75 C-6.66524269 3.65669884 -4.62230386 -0.51358932 0 0 Z " fill="#2A916E" transform="translate(107.25,268.25)"/>
<path d="M0 0 C1.27875 -0.061875 2.5575 -0.12375 3.875 -0.1875 C4.95394531 -0.23970703 4.95394531 -0.23970703 6.0546875 -0.29296875 C6.69664062 -0.19628906 7.33859375 -0.09960938 8 0 C10.1519437 3.22791555 10.20086443 4.28400809 10 8 C7 4.25 7 4.25 7 2 C5.02 2.33 3.04 2.66 1 3 C0.67 2.01 0.34 1.02 0 0 Z " fill="#6E717B" transform="translate(442,262)"/>
<path d="M0 0 C1.32 0.33 2.64 0.66 4 1 C4.33 3.64 4.66 6.28 5 9 C4.67 8.34 4.34 7.68 4 7 C2.68 7 1.36 7 0 7 C0 4.69 0 2.38 0 0 Z " fill="#404454" transform="translate(222,250)"/>
<path d="M0 0 C0.99 0.33 1.98 0.66 3 1 C3 2.98 3 4.96 3 7 C2.34 7 1.68 7 1 7 C0.34 6.34 -0.32 5.68 -1 5 C-1.99 4.67 -2.98 4.34 -4 4 C-2.68 2.68 -1.36 1.36 0 0 Z " fill="#303241" transform="translate(256,241)"/>
<path d="M0 0 C1.875 0.25 1.875 0.25 4 1 C5.25 3.0625 5.25 3.0625 6 5 C4.02 5.33 2.04 5.66 0 6 C-1.125 2.25 -1.125 2.25 0 0 Z " fill="#2A303F" transform="translate(191,241)"/>
<path d="M0 0 C0.33 0.99 0.66 1.98 1 3 C-3.29 2.34 -7.58 1.68 -12 1 C-12 0.67 -12 0.34 -12 0 C-7.74433453 -1.16063604 -4.3164922 -0.76173392 0 0 Z " fill="#5B9E83" transform="translate(81,298)"/>
<path d="M0 0 C1.98 0.66 3.96 1.32 6 2 C5.67 3.32 5.34 4.64 5 6 C6.98 6 8.96 6 11 6 C11 6.33 11 6.66 11 7 C7.75 7.375 7.75 7.375 4 7 C0 2.17948718 0 2.17948718 0 0 Z " fill="#6D6E78" transform="translate(222,266)"/>
<path d="M0 0 C0.66 0 1.32 0 2 0 C2 0.66 2 1.32 2 2 C2.66 2 3.32 2 4 2 C4 4 4 6 4 8 C3.01 8.33 2.02 8.66 1 9 C0 8 0 8 -0.09765625 6.15234375 C-0.06510417 4.1015625 -0.03255208 2.05078125 0 0 Z " fill="#28313D" transform="translate(442,239)"/>
<path d="M0 0 C1.65 0 3.3 0 5 0 C4.67 1.32 4.34 2.64 4 4 C3.01 4 2.02 4 1 4 C1 4.66 1 5.32 1 6 C-0.65 6 -2.3 6 -4 6 C-3.67 5.34 -3.34 4.68 -3 4 C-2.01 4 -1.02 4 0 4 C0 2.68 0 1.36 0 0 Z " fill="#2E3240" transform="translate(265,240)"/>
<path d="M0 0 C0.99 0.33 1.98 0.66 3 1 C3.309375 1.825 3.61875 2.65 3.9375 3.5 C4.288125 4.325 4.63875 5.15 5 6 C7.04105639 6.88693303 7.04105639 6.88693303 9 7 C3.54545455 7.36363636 3.54545455 7.36363636 1.125 5.75 C0 4 0 4 0 0 Z " fill="#79AF9C" transform="translate(117,280)"/>
<path d="M0 0 C0.99 0 1.98 0 3 0 C3.33 0.99 3.66 1.98 4 3 C3.54625 3.433125 3.0925 3.86625 2.625 4.3125 C0.79975666 6.10798342 0.79975666 6.10798342 -1 9 C-1 7.68 -1 6.36 -1 5 C-2.32 5 -3.64 5 -5 5 C-4.67 4.34 -4.34 3.68 -4 3 C-3.01 3 -2.02 3 -1 3 C-0.67 2.01 -0.34 1.02 0 0 Z " fill="#2B3141" transform="translate(321,255)"/>
<path d="M0 0 C6.4 -0.36923077 6.4 -0.36923077 9.4375 1.5 C9.953125 1.995 10.46875 2.49 11 3 C10.34 3 9.68 3 9 3 C8.67 3.66 8.34 4.32 8 5 C8 4.34 8 3.68 8 3 C5.36 3 2.72 3 0 3 C0 2.01 0 1.02 0 0 Z " fill="#565B65" transform="translate(312,252)"/>
<path d="M0 0 C0.99 0.33 1.98 0.66 3 1 C3.042721 2.66611905 3.04063832 4.33382885 3 6 C2 7 2 7 -0.5625 7.0625 C-1.7690625 7.0315625 -1.7690625 7.0315625 -3 7 C-3 6.34 -3 5.68 -3 5 C-2.01 4.34 -1.02 3.68 0 3 C0 2.01 0 1.02 0 0 Z " fill="#64676F" transform="translate(324,242)"/>
<path d="M0 0 C0.33 0 0.66 0 1 0 C1.20086443 3.71599191 1.1519437 4.77208445 -1 8 C-2.65 5.69 -4.3 3.38 -6 1 C-4.7934375 1.0309375 -4.7934375 1.0309375 -3.5625 1.0625 C-1.06645115 1.29633621 -1.06645115 1.29633621 0 0 Z " fill="#333B4D" transform="translate(227,256)"/>
<path d="M0 0 C1.62600941 0.0870005 3.25089678 0.1951781 4.875 0.3125 C5.77992188 0.37050781 6.68484375 0.42851562 7.6171875 0.48828125 C10 1 10 1 12 4 C11.34 4.66 10.68 5.32 10 6 C9.67 5.01 9.34 4.02 9 3 C6.36 3 3.72 3 1 3 C0.67 2.01 0.34 1.02 0 0 Z " fill="#595E69" transform="translate(377,245)"/>
<path d="M0 0 C0.33 0.66 0.66 1.32 1 2 C1.99 2.33 2.98 2.66 4 3 C3.67 3.99 3.34 4.98 3 6 C0.03 5.505 0.03 5.505 -3 5 C-1.125 1.125 -1.125 1.125 0 0 Z " fill="#535860" transform="translate(305,241)"/>
<path d="M0 0 C-0.33 0.66 -0.66 1.32 -1 2 C-4.05002981 3.0166766 -6.80492446 3 -10 3 C-9.67 2.01 -9.34 1.02 -9 0 C-5.93109813 -1.53445094 -3.29905734 -0.54984289 0 0 Z " fill="#797A81" transform="translate(360,229)"/>
<path d="M0 0 C1.65 0.33 3.3 0.66 5 1 C5 1.99 5 2.98 5 4 C3 5.6875 3 5.6875 1 7 C0.34 6.67 -0.32 6.34 -1 6 C-0.34 5.34 0.32 4.68 1 4 C0.6814823 1.89179203 0.6814823 1.89179203 0 0 Z " fill="#555A64" transform="translate(272,265)"/>
<path d="M0 0 C0.515625 0.37125 1.03125 0.7425 1.5625 1.125 C-0.4375 3.125 -0.4375 3.125 -3.9375 3.1875 C-5.0925 3.166875 -6.2475 3.14625 -7.4375 3.125 C-8.4275 3.62 -8.4275 3.62 -9.4375 4.125 C-9.4375 3.135 -9.4375 2.145 -9.4375 1.125 C-3.0375 -1.09038462 -3.0375 -1.09038462 0 0 Z " fill="#5C626E" transform="translate(319.4375,243.875)"/>
<path d="M0 0 C1.32 0.66 2.64 1.32 4 2 C4 2.66 4 3.32 4 4 C1 6 1 6 -1.1875 5.625 C-1.785625 5.41875 -2.38375 5.2125 -3 5 C-2.01 3.35 -1.02 1.7 0 0 Z " fill="#2C313E" transform="translate(260,266)"/>
<path d="M0 0 C0.33 0 0.66 0 1 0 C1 2.64 1 5.28 1 8 C0.01 8.495 0.01 8.495 -1 9 C-1 8.34 -1 7.68 -1 7 C-1.66 7 -2.32 7 -3 7 C-2.38722388 4.03824877 -1.74627478 2.61941217 0 0 Z " fill="#63666F" transform="translate(327,259)"/>
<path d="M0 0 C-0.33 4.29 -0.66 8.58 -1 13 C-1.33 13 -1.66 13 -2 13 C-2 10.03 -2 7.06 -2 4 C-2.66 4 -3.32 4 -4 4 C-3.67 3.01 -3.34 2.02 -3 1 C-1 0 -1 0 0 0 Z " fill="#2B313C" transform="translate(413,253)"/>
<path d="M0 0 C2.0625 0.4375 2.0625 0.4375 4 1 C2 4 2 4 0 7 C0.99 7.33 1.98 7.66 3 8 C1.68 8 0.36 8 -1 8 C-1.04241723 5.66705225 -1.04092937 3.33297433 -1 1 C-0.67 0.67 -0.34 0.34 0 0 Z " fill="#2C303D" transform="translate(248,251)"/>
<path d="M0 0 C2 1 2 1 2.625 2.5625 C3.16368951 6.06398181 3.05903219 9.45806833 3 13 C0.85851267 9.787769 0.55885355 7.7523024 0 4 C-0.33 3.34 -0.66 2.68 -1 2 C-0.67 1.34 -0.34 0.68 0 0 Z " fill="#2C313C" transform="translate(278,247)"/>
<path d="M0 0 C2 2 4 4 6 6 C5.01 6 4.02 6 3 6 C2.67 6.99 2.34 7.98 2 9 C2 8.01 2 7.02 2 6 C1.34 6 0.68 6 0 6 C0 5.34 0 4.68 0 4 C-0.66 3.67 -1.32 3.34 -2 3 C-1.34 2.01 -0.68 1.02 0 0 Z " fill="#515563" transform="translate(270,244)"/>
<path d="M0 0 C0.66 0.66 1.32 1.32 2 2 C-1.12180401 2.96661363 -3.52083795 2.98988909 -6.75 2.5625 C-7.94882812 2.40974609 -7.94882812 2.40974609 -9.171875 2.25390625 C-9.77515625 2.17011719 -10.3784375 2.08632812 -11 2 C-6.93150591 -0.71232939 -4.83523216 -0.30699887 0 0 Z " fill="#9C9DA0" transform="translate(386,238)"/>
<path d="M0 0 C2.375 0.625 2.375 0.625 5 2 C6.3125 5.125 6.3125 5.125 7 8 C3.64379729 6.61122646 1.92701272 5.08322035 0 2 C0 1.34 0 0.68 0 0 Z " fill="#55A185" transform="translate(135,220)"/>
<path d="M0 0 C0.99 0.33 1.98 0.66 3 1 C3 1.66 3 2.32 3 3 C3.99 3.33 4.98 3.66 6 4 C5.67 5.32 5.34 6.64 5 8 C2.5 5.6875 2.5 5.6875 0 3 C0 2.01 0 1.02 0 0 Z " fill="#66B09C" transform="translate(118,212)"/>
<path d="M0 0 C0.33 0 0.66 0 1 0 C2 7.625 2 7.625 2 11 C0.35 9.68 -1.3 8.36 -3 7 C-2.67 6.34 -2.34 5.68 -2 5 C-1.34 5 -0.68 5 0 5 C0 3.35 0 1.7 0 0 Z " fill="#696E76" transform="translate(255,252)"/>
<path d="M0 0 C1.98 0.495 1.98 0.495 4 1 C4.33 2.32 4.66 3.64 5 5 C3.02 5.66 1.04 6.32 -1 7 C-1 6.01 -1 5.02 -1 4 C-0.34 3.67 0.32 3.34 1 3 C0.67 2.01 0.34 1.02 0 0 Z " fill="#2D3140" transform="translate(272,242)"/>
<path d="M0 0 C1.98 0.66 3.96 1.32 6 2 C5.01 2.495 5.01 2.495 4 3 C4 3.66 4 4.32 4 5 C2.68 4.67 1.36 4.34 0 4 C0 2.68 0 1.36 0 0 Z " fill="#4C5360" transform="translate(321,266)"/>
<path d="M0 0 C2.475 0.495 2.475 0.495 5 1 C4.67 2.65 4.34 4.3 4 6 C2 4.6875 2 4.6875 0 3 C0 2.01 0 1.02 0 0 Z " fill="#159C6E" transform="translate(135,253)"/>
<path d="M0 0 C0.99 1.32 1.98 2.64 3 4 C2.67 4.33 2.34 4.66 2 5 C2.99 5.66 3.98 6.32 5 7 C3.02 7 1.04 7 -1 7 C-0.67 4.69 -0.34 2.38 0 0 Z " fill="#535761" transform="translate(182,266)"/>
<path d="M0 0 C1.32 0.66 2.64 1.32 4 2 C4 3.32 4 4.64 4 6 C2.35 6 0.7 6 -1 6 C-0.34 5.01 0.32 4.02 1 3 C0.67 2.01 0.34 1.02 0 0 Z " fill="#2B2F40" transform="translate(183,266)"/>
<path d="M0 0 C0.33 0.66 0.66 1.32 1 2 C-2.01031744 2.93423645 -2.86650268 3.04449911 -6 2 C-6.33 3.32 -6.66 4.64 -7 6 C-7 4.35 -7 2.7 -7 1 C-4.53721199 -0.231394 -2.7204945 -0.07159196 0 0 Z " fill="#85898E" transform="translate(294,239)"/>
<path d="M0 0 C1.65 0 3.3 0 5 0 C5.66 1.32 6.32 2.64 7 4 C4.36 3.34 1.72 2.68 -1 2 C-0.67 1.34 -0.34 0.68 0 0 Z " fill="#666A75" transform="translate(215,239)"/>
<path d="M0 0 C0.99 0 1.98 0 3 0 C3 0.66 3 1.32 3 2 C3.66 2.33 4.32 2.66 5 3 C3.02 3.33 1.04 3.66 -1 4 C-0.67 2.68 -0.34 1.36 0 0 Z " fill="#4B5061" transform="translate(188,245)"/>
<path d="M0 0 C2.97 0.33 5.94 0.66 9 1 C9 1.33 9 1.66 9 2 C7.35 2 5.7 2 4 2 C4 2.66 4 3.32 4 4 C3.34 4 2.68 4 2 4 C2 3.01 2 2.02 2 1 C1.34 0.67 0.68 0.34 0 0 Z " fill="#86888F" transform="translate(261,238)"/>
</svg>
